<svg xmlns="http://www.w3.org/2000/svg" width="960" height="453" viewBox="0 0 960 453" role="img" aria-label="perl examples/cookbook/chart-histogram.pl">
<title>perl examples/cookbook/chart-histogram.pl</title>
<style>
.terminal text { font-family: 'JetBrains Mono', 'Cascadia Mono', 'SF Mono', Menlo, Consolas, 'DejaVu Sans Mono', 'Liberation Mono', monospace; font-size: 15px; white-space: pre; }
.terminal .b { font-weight: bold; }
.terminal .i { font-style: italic; }
.title { font-family: 'JetBrains Mono', 'Cascadia Mono', 'SF Mono', Menlo, Consolas, 'DejaVu Sans Mono', 'Liberation Mono', monospace; font-size: 13px; }
</style>
<defs>
<filter id="shadow" x="-10%" y="-10%" width="120%" height="130%"><feDropShadow dx="0" dy="3" stdDeviation="5" flood-color="#000000" flood-opacity="0.3"/></filter>
<clipPath id="window"><rect x="16" y="16" width="928" height="418" rx="10"/></clipPath>
</defs>
<rect x="16" y="16" width="928" height="418" rx="10" fill="#141923" filter="url(#shadow)"/>
<rect x="16" y="16" width="928" height="34" fill="#1f2430" clip-path="url(#window)"/>
<circle cx="36" cy="33" r="6" fill="#ff5f57"/>
<circle cx="56" cy="33" r="6" fill="#febc2e"/>
<circle cx="76" cy="33" r="6" fill="#28c840"/>
<text class="title" x="480" y="33" text-anchor="middle" dominant-baseline="central" fill="#9aa3b5">perl examples/cookbook/chart-histogram.pl</text>
<rect x="16.5" y="16.5" width="927" height="417" rx="10" fill="none" stroke="#ffffff" stroke-opacity="0.08" stroke-width="1"/>
<g shape-rendering="crispEdges">
<rect x="804" y="132" width="27" height="198" fill="#199e70"/>
<rect x="840" y="132" width="27" height="198" fill="#199e70"/>
<rect x="876" y="132" width="27" height="198" fill="#199e70"/>
<rect x="201" y="168" width="18" height="18" fill="#3987e5"/>
<rect x="255" y="168" width="27" height="18" fill="#3987e5"/>
<rect x="201" y="186" width="81" height="18" fill="#3987e5"/>
<rect x="768" y="186" width="27" height="144" fill="#199e70"/>
<rect x="201" y="204" width="99" height="36" fill="#3987e5"/>
<rect x="318" y="222" width="18" height="18" fill="#3987e5"/>
<rect x="147" y="240" width="207" height="36" fill="#3987e5"/>
<rect x="732" y="258" width="27" height="72" fill="#199e70"/>
<rect x="147" y="276" width="225" height="18" fill="#3987e5"/>
<rect x="129" y="294" width="243" height="18" fill="#3987e5"/>
<rect x="111" y="312" width="279" height="18" fill="#3987e5"/>
<rect x="687" y="312" width="36" height="18" fill="#199e70"/>
<rect x="75" y="122" width="387" height="1" fill="#30353d"/>
<rect x="543" y="122" width="261" height="1" fill="#30353d"/>
<rect x="831" y="122" width="9" height="1" fill="#30353d"/>
<rect x="867" y="122" width="9" height="1" fill="#30353d"/>
<rect x="903" y="122" width="9" height="1" fill="#30353d"/>
<rect x="840" y="123" width="27" height="9" fill="#199e70"/>
<rect x="876" y="123" width="27" height="9" fill="#199e70"/>
<rect x="804" y="130" width="27" height="2" fill="#199e70"/>
<rect x="255" y="152" width="27" height="16" fill="#3987e5"/>
<rect x="201" y="157" width="18" height="11" fill="#3987e5"/>
<rect x="768" y="170" width="27" height="16" fill="#199e70"/>
<rect x="543" y="176" width="225" height="1" fill="#30353d"/>
<rect x="795" y="176" width="9" height="1" fill="#30353d"/>
<rect x="831" y="176" width="9" height="1" fill="#30353d"/>
<rect x="867" y="176" width="9" height="1" fill="#30353d"/>
<rect x="903" y="176" width="9" height="1" fill="#30353d"/>
<rect x="237" y="182" width="18" height="4" fill="#3987e5"/>
<rect x="282" y="193" width="18" height="11" fill="#3987e5"/>
<rect x="75" y="194" width="126" height="1" fill="#30353d"/>
<rect x="300" y="194" width="162" height="1" fill="#30353d"/>
<rect x="147" y="227" width="18" height="13" fill="#3987e5"/>
<rect x="165" y="229" width="18" height="11" fill="#3987e5"/>
<rect x="543" y="230" width="225" height="1" fill="#30353d"/>
<rect x="795" y="230" width="9" height="1" fill="#30353d"/>
<rect x="831" y="230" width="9" height="1" fill="#30353d"/>
<rect x="867" y="230" width="9" height="1" fill="#30353d"/>
<rect x="903" y="230" width="9" height="1" fill="#30353d"/>
<rect x="183" y="236" width="18" height="4" fill="#3987e5"/>
<rect x="300" y="238" width="18" height="2" fill="#3987e5"/>
<rect x="336" y="238" width="18" height="2" fill="#3987e5"/>
<rect x="732" y="245" width="27" height="13" fill="#199e70"/>
<rect x="354" y="265" width="18" height="11" fill="#3987e5"/>
<rect x="75" y="266" width="72" height="1" fill="#30353d"/>
<rect x="372" y="266" width="90" height="1" fill="#30353d"/>
<rect x="543" y="284" width="189" height="1" fill="#30353d"/>
<rect x="759" y="284" width="9" height="1" fill="#30353d"/>
<rect x="795" y="284" width="9" height="1" fill="#30353d"/>
<rect x="831" y="284" width="9" height="1" fill="#30353d"/>
<rect x="867" y="284" width="9" height="1" fill="#30353d"/>
<rect x="903" y="284" width="9" height="1" fill="#30353d"/>
<rect x="372" y="308" width="18" height="4" fill="#3987e5"/>
<rect x="111" y="310" width="18" height="2" fill="#3987e5"/>
<rect x="390" y="317" width="18" height="13" fill="#3987e5"/>
<rect x="408" y="319" width="18" height="11" fill="#3987e5"/>
<rect x="93" y="321" width="18" height="9" fill="#3987e5"/>
<rect x="75" y="330" width="351" height="9" fill="#3987e5"/>
<rect x="687" y="330" width="36" height="9" fill="#199e70"/>
<rect x="732" y="330" width="27" height="9" fill="#199e70"/>
<rect x="768" y="330" width="27" height="9" fill="#199e70"/>
<rect x="804" y="330" width="27" height="9" fill="#199e70"/>
<rect x="840" y="330" width="27" height="9" fill="#199e70"/>
<rect x="876" y="330" width="27" height="9" fill="#199e70"/>
<rect x="543" y="338" width="144" height="1" fill="#5b5e65"/>
<rect x="547" y="338" width="1" height="10" fill="#5b5e65"/>
<rect x="637" y="338" width="1" height="10" fill="#5b5e65"/>
<rect x="723" y="338" width="9" height="1" fill="#5b5e65"/>
<rect x="727" y="338" width="1" height="10" fill="#5b5e65"/>
<rect x="759" y="338" width="9" height="1" fill="#5b5e65"/>
<rect x="795" y="338" width="9" height="1" fill="#5b5e65"/>
<rect x="831" y="338" width="9" height="1" fill="#5b5e65"/>
<rect x="867" y="338" width="9" height="1" fill="#5b5e65"/>
<rect x="903" y="338" width="9" height="1" fill="#5b5e65"/>
</g>
<g class="terminal">
<text x="48" y="92" textLength="648" class="b" fill="#f3f4f4">Exam scores                                       Share below ... points</text>
<text x="48" y="128" textLength="18" fill="#95989c">75</text>
<text x="498" y="128" textLength="36" fill="#95989c">100%</text>
<text x="507" y="182" textLength="27" fill="#95989c">75%</text>
<text x="48" y="200" textLength="18" fill="#95989c">50</text>
<text x="507" y="236" textLength="27" fill="#95989c">50%</text>
<text x="48" y="272" textLength="18" fill="#95989c">25</text>
<text x="507" y="290" textLength="27" fill="#95989c">25%</text>
<text x="57" y="344" textLength="9" fill="#95989c">0</text>
<text x="516" y="344" textLength="18" fill="#95989c">0%</text>
<text x="84" y="362" textLength="828" fill="#95989c">40      50      60      70      80      90        0         25        50        75       100</text>
<text x="237" y="380" textLength="513" fill="#95989c">points                                             points</text>
</g>
<g shape-rendering="crispEdges">
</g>
</svg>
