<svg xmlns="http://www.w3.org/2000/svg" width="780" height="453" viewBox="0 0 780 453" role="img" aria-label="perl examples/themes.pl dark">
<title>perl examples/themes.pl dark</title>
<style>
.terminal text { font-family: 'JetBrains Mono', 'Cascadia Mono', 'SF Mono', Menlo, Consolas, 'DejaVu Sans Mono', 'Liberation Mono', monospace; font-size: 15px; white-space: pre; }
.terminal .b { font-weight: bold; }
.terminal .i { font-style: italic; }
.title { font-family: 'JetBrains Mono', 'Cascadia Mono', 'SF Mono', Menlo, Consolas, 'DejaVu Sans Mono', 'Liberation Mono', monospace; font-size: 13px; }
</style>
<defs>
<filter id="shadow" x="-10%" y="-10%" width="120%" height="130%"><feDropShadow dx="0" dy="3" stdDeviation="5" flood-color="#000000" flood-opacity="0.3"/></filter>
<clipPath id="window"><rect x="16" y="16" width="748" height="418" rx="10"/></clipPath>
</defs>
<rect x="16" y="16" width="748" height="418" rx="10" fill="#141923" filter="url(#shadow)"/>
<rect x="16" y="16" width="748" height="34" fill="#1f2430" clip-path="url(#window)"/>
<circle cx="36" cy="33" r="6" fill="#ff5f57"/>
<circle cx="56" cy="33" r="6" fill="#febc2e"/>
<circle cx="76" cy="33" r="6" fill="#28c840"/>
<text class="title" x="390" y="33" text-anchor="middle" dominant-baseline="central" fill="#9aa3b5">perl examples/themes.pl dark</text>
<rect x="16.5" y="16.5" width="747" height="417" rx="10" fill="none" stroke="#ffffff" stroke-opacity="0.08" stroke-width="1"/>
<g shape-rendering="crispEdges">
<rect x="66" y="168" width="27" height="18" fill="#343a48"/>
<rect x="93" y="168" width="9" height="18" fill="#dcdfe4"/>
<rect x="102" y="168" width="432" height="18" fill="#343a48"/>
<rect x="66" y="140" width="189" height="1" fill="#5a606e"/>
<rect x="336" y="140" width="198" height="1" fill="#5a606e"/>
<rect x="66" y="240" width="275" height="18" fill="#61afef"/>
<rect x="345" y="240" width="144" height="18" fill="#1e232d"/>
</g>
<g class="terminal">
<text x="66" y="110" textLength="351" fill="#dcdfe4">Theme: dark (F2 switches, Ctrl+C quits)</text>
<text x="264" y="146" textLength="63" fill="#96a0b4">Account</text>
<text x="66" y="182" textLength="27" fill="#dcdfe4">Ada</text>
<text x="66" y="218" textLength="27" fill="#61afef">[x]</text>
<text x="102" y="218" textLength="243" fill="#dcdfe4">Subscribe to the newsletter</text>
<text x="507" y="254" textLength="27" fill="#dcdfe4">65%</text>
<text x="93" y="308" textLength="162" fill="#dcdfe4">Save        Cancel</text>
</g>
<g shape-rendering="crispEdges">
</g>
</svg>
