<svg xmlns="http://www.w3.org/2000/svg" width="780" height="435" viewBox="0 0 780 435" role="img" aria-label="perl examples/layout-alignment.pl">
<title>perl examples/layout-alignment.pl</title>
<style>
.terminal text { font-family: 'JetBrains Mono', 'Cascadia Mono', 'SF Mono', Menlo, Consolas, 'DejaVu Sans Mono', 'Liberation Mono', monospace; font-size: 15px; white-space: pre; }
.terminal .b { font-weight: bold; }
.terminal .i { font-style: italic; }
.title { font-family: 'JetBrains Mono', 'Cascadia Mono', 'SF Mono', Menlo, Consolas, 'DejaVu Sans Mono', 'Liberation Mono', monospace; font-size: 13px; }
</style>
<defs>
<filter id="shadow" x="-10%" y="-10%" width="120%" height="130%"><feDropShadow dx="0" dy="3" stdDeviation="5" flood-color="#000000" flood-opacity="0.3"/></filter>
<clipPath id="window"><rect x="16" y="16" width="748" height="400" rx="10"/></clipPath>
</defs>
<rect x="16" y="16" width="748" height="400" rx="10" fill="#141923" filter="url(#shadow)"/>
<rect x="16" y="16" width="748" height="34" fill="#1f2430" clip-path="url(#window)"/>
<circle cx="36" cy="33" r="6" fill="#ff5f57"/>
<circle cx="56" cy="33" r="6" fill="#febc2e"/>
<circle cx="76" cy="33" r="6" fill="#28c840"/>
<text class="title" x="390" y="33" text-anchor="middle" dominant-baseline="central" fill="#9aa3b5">perl examples/layout-alignment.pl</text>
<rect x="16.5" y="16.5" width="747" height="399" rx="10" fill="none" stroke="#ffffff" stroke-opacity="0.08" stroke-width="1"/>
<g shape-rendering="crispEdges">
<rect x="48" y="78" width="126" height="18" fill="#61afef"/>
<rect x="174" y="78" width="90" height="18" fill="#282e40"/>
<rect x="282" y="78" width="36" height="18" fill="#282e40"/>
<rect x="318" y="78" width="144" height="18" fill="#61afef"/>
<rect x="462" y="78" width="36" height="18" fill="#282e40"/>
<rect x="516" y="78" width="81" height="18" fill="#282e40"/>
<rect x="597" y="78" width="135" height="18" fill="#61afef"/>
<rect x="48" y="96" width="216" height="72" fill="#282e40"/>
<rect x="282" y="96" width="216" height="72" fill="#282e40"/>
<rect x="516" y="96" width="216" height="72" fill="#282e40"/>
<rect x="48" y="186" width="216" height="36" fill="#282e40"/>
<rect x="282" y="186" width="216" height="36" fill="#282e40"/>
<rect x="516" y="186" width="216" height="36" fill="#282e40"/>
<rect x="48" y="222" width="153" height="18" fill="#61afef"/>
<rect x="201" y="222" width="63" height="18" fill="#282e40"/>
<rect x="282" y="222" width="18" height="18" fill="#282e40"/>
<rect x="300" y="222" width="171" height="18" fill="#61afef"/>
<rect x="471" y="222" width="27" height="18" fill="#282e40"/>
<rect x="516" y="222" width="54" height="18" fill="#282e40"/>
<rect x="570" y="222" width="162" height="18" fill="#61afef"/>
<rect x="48" y="240" width="216" height="36" fill="#282e40"/>
<rect x="282" y="240" width="216" height="36" fill="#282e40"/>
<rect x="516" y="240" width="216" height="36" fill="#282e40"/>
<rect x="48" y="294" width="216" height="72" fill="#282e40"/>
<rect x="282" y="294" width="216" height="72" fill="#282e40"/>
<rect x="516" y="294" width="216" height="72" fill="#282e40"/>
<rect x="48" y="366" width="153" height="18" fill="#61afef"/>
<rect x="201" y="366" width="63" height="18" fill="#282e40"/>
<rect x="282" y="366" width="18" height="18" fill="#282e40"/>
<rect x="300" y="366" width="171" height="18" fill="#61afef"/>
<rect x="471" y="366" width="27" height="18" fill="#282e40"/>
<rect x="516" y="366" width="54" height="18" fill="#282e40"/>
<rect x="570" y="366" width="162" height="18" fill="#61afef"/>
</g>
<g class="terminal">
<text x="57" y="92" textLength="666" fill="#141923">x=left y=top                  x=center y=top                 x=right y=top</text>
<text x="57" y="236" textLength="666" fill="#141923">x=left y=center             x=center y=center             x=right y=center</text>
<text x="57" y="380" textLength="666" fill="#141923">x=left y=bottom             x=center y=bottom             x=right y=bottom</text>
</g>
<g shape-rendering="crispEdges">
</g>
</svg>
