<svg xmlns="http://www.w3.org/2000/svg" width="600" height="345" viewBox="0 0 600 345" role="img" aria-label="perl examples/flow.pl">
<title>perl examples/flow.pl</title>
<style>
.terminal text { font-family: 'JetBrains Mono', 'Cascadia Mono', 'SF Mono', Menlo, Consolas, 'DejaVu Sans Mono', 'Liberation Mono', monospace; font-size: 15px; white-space: pre; }
.terminal .b { font-weight: bold; }
.terminal .i { font-style: italic; }
.title { font-family: 'JetBrains Mono', 'Cascadia Mono', 'SF Mono', Menlo, Consolas, 'DejaVu Sans Mono', 'Liberation Mono', monospace; font-size: 13px; }
</style>
<defs>
<filter id="shadow" x="-10%" y="-10%" width="120%" height="130%"><feDropShadow dx="0" dy="3" stdDeviation="5" flood-color="#000000" flood-opacity="0.3"/></filter>
<clipPath id="window"><rect x="16" y="16" width="568" height="310" rx="10"/></clipPath>
</defs>
<rect x="16" y="16" width="568" height="310" rx="10" fill="#141923" filter="url(#shadow)"/>
<rect x="16" y="16" width="568" height="34" fill="#1f2430" clip-path="url(#window)"/>
<circle cx="36" cy="33" r="6" fill="#ff5f57"/>
<circle cx="56" cy="33" r="6" fill="#febc2e"/>
<circle cx="76" cy="33" r="6" fill="#28c840"/>
<text class="title" x="300" y="33" text-anchor="middle" dominant-baseline="central" fill="#9aa3b5">perl examples/flow.pl</text>
<rect x="16.5" y="16.5" width="567" height="309" rx="10" fill="none" stroke="#ffffff" stroke-opacity="0.08" stroke-width="1"/>
<g shape-rendering="crispEdges">
<rect x="48" y="114" width="504" height="18" fill="#1e2332"/>
<rect x="48" y="132" width="18" height="18" fill="#1e2332"/>
<rect x="66" y="132" width="54" height="18" fill="#61afef"/>
<rect x="120" y="132" width="9" height="18" fill="#1e2332"/>
<rect x="129" y="132" width="90" height="18" fill="#98c379"/>
<rect x="219" y="132" width="9" height="18" fill="#1e2332"/>
<rect x="228" y="132" width="72" height="18" fill="#e5c07b"/>
<rect x="300" y="132" width="9" height="18" fill="#1e2332"/>
<rect x="309" y="132" width="54" height="18" fill="#c678dd"/>
<rect x="363" y="132" width="9" height="18" fill="#1e2332"/>
<rect x="372" y="132" width="54" height="18" fill="#e06c75"/>
<rect x="426" y="132" width="9" height="18" fill="#1e2332"/>
<rect x="435" y="132" width="90" height="18" fill="#61afef"/>
<rect x="525" y="132" width="27" height="18" fill="#1e2332"/>
<rect x="48" y="150" width="504" height="18" fill="#1e2332"/>
<rect x="48" y="168" width="18" height="18" fill="#1e2332"/>
<rect x="66" y="168" width="81" height="18" fill="#98c379"/>
<rect x="147" y="168" width="9" height="18" fill="#1e2332"/>
<rect x="156" y="168" width="81" height="18" fill="#e5c07b"/>
<rect x="237" y="168" width="9" height="18" fill="#1e2332"/>
<rect x="246" y="168" width="72" height="18" fill="#c678dd"/>
<rect x="318" y="168" width="9" height="18" fill="#1e2332"/>
<rect x="327" y="168" width="81" height="18" fill="#e06c75"/>
<rect x="408" y="168" width="9" height="18" fill="#1e2332"/>
<rect x="417" y="168" width="90" height="18" fill="#61afef"/>
<rect x="507" y="168" width="45" height="18" fill="#1e2332"/>
<rect x="48" y="186" width="504" height="18" fill="#1e2332"/>
<rect x="48" y="204" width="18" height="18" fill="#1e2332"/>
<rect x="66" y="204" width="63" height="18" fill="#98c379"/>
<rect x="129" y="204" width="9" height="18" fill="#1e2332"/>
<rect x="138" y="204" width="63" height="18" fill="#e5c07b"/>
<rect x="201" y="204" width="9" height="18" fill="#1e2332"/>
<rect x="210" y="204" width="99" height="18" fill="#c678dd"/>
<rect x="309" y="204" width="9" height="18" fill="#1e2332"/>
<rect x="318" y="204" width="72" height="18" fill="#e06c75"/>
<rect x="390" y="204" width="9" height="18" fill="#1e2332"/>
<rect x="399" y="204" width="63" height="18" fill="#61afef"/>
<rect x="462" y="204" width="90" height="18" fill="#1e2332"/>
<rect x="48" y="222" width="504" height="18" fill="#1e2332"/>
<rect x="48" y="240" width="18" height="18" fill="#1e2332"/>
<rect x="66" y="240" width="81" height="18" fill="#98c379"/>
<rect x="147" y="240" width="9" height="18" fill="#1e2332"/>
<rect x="156" y="240" width="45" height="18" fill="#e5c07b"/>
<rect x="201" y="240" width="9" height="18" fill="#1e2332"/>
<rect x="210" y="240" width="72" height="18" fill="#c678dd"/>
<rect x="282" y="240" width="9" height="18" fill="#1e2332"/>
<rect x="291" y="240" width="117" height="18" fill="#e06c75"/>
<rect x="408" y="240" width="144" height="18" fill="#1e2332"/>
<rect x="48" y="258" width="504" height="36" fill="#1e2332"/>
<rect x="57" y="122" width="486" height="1" fill="#78a0dc"/>
<rect x="52" y="132" width="1" height="144" fill="#78a0dc"/>
<rect x="547" y="132" width="1" height="144" fill="#78a0dc"/>
<rect x="57" y="284" width="486" height="1" fill="#78a0dc"/>
</g>
<polyline points="52.5 132 52.5 127 52.538 126.413 52.653 125.835 52.843 125.278 53.103 124.75 53.43 124.261 53.818 123.818 54.261 123.43 54.75 123.103 55.278 122.843 55.835 122.653 56.413 122.538 57 122.5 57 122.5" fill="none" stroke="#78a0dc" stroke-width="1" stroke-linejoin="round"/>
<polyline points="547.5 132 547.5 127 547.462 126.413 547.347 125.835 547.157 125.278 546.897 124.75 546.57 124.261 546.182 123.818 545.739 123.43 545.25 123.103 544.722 122.843 544.165 122.653 543.587 122.538 543 122.5 543 122.5" fill="none" stroke="#78a0dc" stroke-width="1" stroke-linejoin="round"/>
<polyline points="52.5 276 52.5 280 52.538 280.587 52.653 281.165 52.843 281.722 53.103 282.25 53.43 282.739 53.818 283.182 54.261 283.57 54.75 283.897 55.278 284.157 55.835 284.347 56.413 284.462 57 284.5 57 284.5" fill="none" stroke="#78a0dc" stroke-width="1" stroke-linejoin="round"/>
<polyline points="547.5 276 547.5 280 547.462 280.587 547.347 281.165 547.157 281.722 546.897 282.25 546.57 282.739 546.182 283.182 545.739 283.57 545.25 283.897 544.722 284.157 544.165 284.347 543.587 284.462 543 284.5 543 284.5" fill="none" stroke="#78a0dc" stroke-width="1" stroke-linejoin="round"/>
<g class="terminal">
<text x="48" y="92" textLength="504" fill="#dcdcdc">Resize the terminal to rewrap the tags  (Ctrl+C to quit)</text>
<text x="75" y="146" textLength="441" fill="#141923">perl   terminal   layout   clay   flow   wrapping</text>
<text x="75" y="182" textLength="423" fill="#141923">widgets   unicode   colors   borders   keyboard</text>
<text x="75" y="218" textLength="378" fill="#141923">mouse   focus   scrolling   canvas   forms</text>
<text x="75" y="254" textLength="324" fill="#141923">dialogs   kdl   static   screenshots</text>
</g>
<g shape-rendering="crispEdges">
</g>
</svg>
