<svg xmlns="http://www.w3.org/2000/svg" width="780" height="327" viewBox="0 0 780 327" role="img" aria-label="perl examples/colors.pl">
<title>perl examples/colors.pl</title>
<style>
.terminal text { font-family: 'JetBrains Mono', 'Cascadia Mono', 'SF Mono', Menlo, Consolas, 'DejaVu Sans Mono', 'Liberation Mono', monospace; font-size: 15px; white-space: pre; }
.terminal .b { font-weight: bold; }
.terminal .i { font-style: italic; }
.title { font-family: 'JetBrains Mono', 'Cascadia Mono', 'SF Mono', Menlo, Consolas, 'DejaVu Sans Mono', 'Liberation Mono', monospace; font-size: 13px; }
</style>
<defs>
<filter id="shadow" x="-10%" y="-10%" width="120%" height="130%"><feDropShadow dx="0" dy="3" stdDeviation="5" flood-color="#000000" flood-opacity="0.3"/></filter>
<clipPath id="window"><rect x="16" y="16" width="748" height="292" rx="10"/></clipPath>
</defs>
<rect x="16" y="16" width="748" height="292" rx="10" fill="#141923" filter="url(#shadow)"/>
<rect x="16" y="16" width="748" height="34" fill="#1f2430" clip-path="url(#window)"/>
<circle cx="36" cy="33" r="6" fill="#ff5f57"/>
<circle cx="56" cy="33" r="6" fill="#febc2e"/>
<circle cx="76" cy="33" r="6" fill="#28c840"/>
<text class="title" x="390" y="33" text-anchor="middle" dominant-baseline="central" fill="#9aa3b5">perl examples/colors.pl</text>
<rect x="16.5" y="16.5" width="747" height="291" rx="10" fill="none" stroke="#ffffff" stroke-opacity="0.08" stroke-width="1"/>
<g shape-rendering="crispEdges">
<rect x="129" y="78" width="90" height="18" fill="#ff8800"/>
<rect x="228" y="78" width="90" height="18" fill="#ff8800"/>
<rect x="327" y="78" width="90" height="18" fill="#ff8800"/>
<rect x="426" y="78" width="90" height="18" fill="#ff8800"/>
<rect x="525" y="78" width="90" height="18" fill="#ff8800"/>
<rect x="624" y="78" width="90" height="18" fill="#ff8c00"/>
<rect x="129" y="114" width="90" height="18" fill="#073b91"/>
<rect x="228" y="114" width="90" height="18" fill="#0a59da"/>
<rect x="327" y="114" width="90" height="18" fill="#3b82f6"/>
<rect x="129" y="150" width="90" height="18" fill="#3b82f6"/>
<rect x="228" y="150" width="90" height="18" fill="#84b1f9"/>
<rect x="327" y="150" width="90" height="18" fill="#cddffd"/>
<rect x="129" y="186" width="90" height="18" fill="#3b82f6"/>
<rect x="228" y="186" width="90" height="18" fill="#6ca1f8"/>
<rect x="327" y="186" width="90" height="18" fill="#9dc1fb"/>
<rect x="426" y="186" width="90" height="18" fill="#cee0fd"/>
<rect x="525" y="186" width="90" height="18" fill="#ffffff"/>
<rect x="129" y="222" width="9" height="18" fill="#e1e1d2"/>
<rect x="138" y="222" width="90" height="18" fill="#dc2828"/>
<rect x="228" y="222" width="9" height="18" fill="#e1e1d2"/>
<rect x="237" y="222" width="90" height="18" fill="#dd5652"/>
<rect x="327" y="222" width="9" height="18" fill="#e1e1d2"/>
<rect x="336" y="222" width="90" height="18" fill="#de847d"/>
<rect x="426" y="222" width="9" height="18" fill="#e1e1d2"/>
<rect x="435" y="222" width="90" height="18" fill="#e0b3a7"/>
<rect x="525" y="222" width="108" height="18" fill="#e1e1d2"/>
</g>
<g class="terminal">
<text x="48" y="92" textLength="63" fill="#96a0b4">formats</text>
<text x="129" y="92" textLength="585" fill="#141414">'#ff8800'  rgb()      hsl()      [r, g, b]  0xFF8800   DarkOrange</text>
<text x="48" y="128" textLength="54" fill="#96a0b4">darken</text>
<text x="129" y="128" textLength="135" fill="#f0f0f0">0.3        0.15</text>
<text x="327" y="128" textLength="63" fill="#141414">#3b82f6</text>
<text x="48" y="164" textLength="63" fill="#96a0b4">lighten</text>
<text x="129" y="164" textLength="225" fill="#141414">#3b82f6    0.15       0.3</text>
<text x="48" y="200" textLength="45" fill="#96a0b4">blend</text>
<text x="129" y="200" textLength="405" fill="#141414">0          0.25       0.5        0.75       1</text>
<text x="48" y="236" textLength="45" fill="#96a0b4">alpha</text>
<text x="138" y="236" textLength="459" fill="#141414">alpha 255  alpha 192  alpha 128  alpha 64   alpha 0</text>
<text x="48" y="272" textLength="63" fill="#96a0b4">default</text>
<text x="129" y="272" textLength="441" fill="#d4d8e0">text_color [0, 0, 0, 0] is the default text color</text>
</g>
<g shape-rendering="crispEdges">
</g>
</svg>
