<svg xmlns="http://www.w3.org/2000/svg" width="708" height="291" viewBox="0 0 708 291" role="img" aria-label="perl examples/widgets/box.pl">
<title>perl examples/widgets/box.pl</title>
<style>
.terminal text { font-family: 'JetBrains Mono', 'Cascadia Mono', 'SF Mono', Menlo, Consolas, 'DejaVu Sans Mono', 'Liberation Mono', monospace; font-size: 15px; white-space: pre; }
.terminal .b { font-weight: bold; }
.terminal .i { font-style: italic; }
.title { font-family: 'JetBrains Mono', 'Cascadia Mono', 'SF Mono', Menlo, Consolas, 'DejaVu Sans Mono', 'Liberation Mono', monospace; font-size: 13px; }
</style>
<defs>
<filter id="shadow" x="-10%" y="-10%" width="120%" height="130%"><feDropShadow dx="0" dy="3" stdDeviation="5" flood-color="#000000" flood-opacity="0.3"/></filter>
<clipPath id="window"><rect x="16" y="16" width="676" height="256" rx="10"/></clipPath>
</defs>
<rect x="16" y="16" width="676" height="256" rx="10" fill="#141923" filter="url(#shadow)"/>
<rect x="16" y="16" width="676" height="34" fill="#1f2430" clip-path="url(#window)"/>
<circle cx="36" cy="33" r="6" fill="#ff5f57"/>
<circle cx="56" cy="33" r="6" fill="#febc2e"/>
<circle cx="76" cy="33" r="6" fill="#28c840"/>
<text class="title" x="354" y="33" text-anchor="middle" dominant-baseline="central" fill="#9aa3b5">perl examples/widgets/box.pl</text>
<rect x="16.5" y="16.5" width="675" height="255" rx="10" fill="none" stroke="#ffffff" stroke-opacity="0.08" stroke-width="1"/>
<g shape-rendering="crispEdges">
<rect x="48" y="78" width="612" height="90" fill="#1e2332"/>
<rect x="48" y="186" width="63" height="54" fill="#35442a"/>
<rect x="129" y="186" width="387" height="54" fill="#213d53"/>
<rect x="534" y="186" width="126" height="54" fill="#50432b"/>
<rect x="57" y="86" width="594" height="1" fill="#61afef"/>
<rect x="52" y="96" width="1" height="54" fill="#61afef"/>
<rect x="655" y="96" width="1" height="54" fill="#61afef"/>
<rect x="57" y="158" width="594" height="1" fill="#61afef"/>
<rect x="52" y="194" width="1" height="37" fill="#98c379"/>
<rect x="52" y="194" width="55" height="1" fill="#98c379"/>
<rect x="106" y="194" width="1" height="37" fill="#98c379"/>
<rect x="133" y="194" width="1" height="37" fill="#61afef"/>
<rect x="133" y="194" width="379" height="1" fill="#61afef"/>
<rect x="511" y="194" width="1" height="37" fill="#61afef"/>
<rect x="538" y="194" width="1" height="37" fill="#e5c07b"/>
<rect x="538" y="194" width="118" height="1" fill="#e5c07b"/>
<rect x="655" y="194" width="1" height="37" fill="#e5c07b"/>
<rect x="52" y="230" width="55" height="1" fill="#98c379"/>
<rect x="133" y="230" width="379" height="1" fill="#61afef"/>
<rect x="538" y="230" width="118" height="1" fill="#e5c07b"/>
</g>
<polyline points="52.5 96 52.5 91 52.538 90.413 52.653 89.835 52.843 89.278 53.103 88.75 53.43 88.261 53.818 87.818 54.261 87.43 54.75 87.103 55.278 86.843 55.835 86.653 56.413 86.538 57 86.5 57 86.5" fill="none" stroke="#61afef" stroke-width="1" stroke-linejoin="round"/>
<polyline points="655.5 96 655.5 91 655.462 90.413 655.347 89.835 655.157 89.278 654.897 88.75 654.57 88.261 654.182 87.818 653.739 87.43 653.25 87.103 652.722 86.843 652.165 86.653 651.587 86.538 651 86.5 651 86.5" fill="none" stroke="#61afef" stroke-width="1" stroke-linejoin="round"/>
<polyline points="52.5 150 52.5 154 52.538 154.587 52.653 155.165 52.843 155.722 53.103 156.25 53.43 156.739 53.818 157.182 54.261 157.57 54.75 157.897 55.278 158.157 55.835 158.347 56.413 158.462 57 158.5 57 158.5" fill="none" stroke="#61afef" stroke-width="1" stroke-linejoin="round"/>
<polyline points="655.5 150 655.5 154 655.462 154.587 655.347 155.165 655.157 155.722 654.897 156.25 654.57 156.739 654.182 157.182 653.739 157.57 653.25 157.897 652.722 158.157 652.165 158.347 651.587 158.462 651 158.5 651 158.5" fill="none" stroke="#61afef" stroke-width="1" stroke-linejoin="round"/>
<g class="terminal">
<text x="66" y="110" textLength="45" fill="#ffffff">Title</text>
<text x="66" y="146" textLength="495" fill="#c8cdd7">Body text: a Box holds other widgets and lays them out.</text>
<text x="66" y="218" textLength="27" fill="#ffffff">fit</text>
<text x="147" y="218" textLength="36" fill="#ffffff">grow</text>
<text x="552" y="218" textLength="81" fill="#ffffff">fixed(14)</text>
</g>
<g shape-rendering="crispEdges">
</g>
</svg>
