<svg xmlns="http://www.w3.org/2000/svg" width="744" height="489" viewBox="0 0 744 489" role="img" aria-label="perl examples/widgets/radar-chart.pl">
<title>perl examples/widgets/radar-chart.pl</title>
<style>
.terminal text { font-family: 'JetBrains Mono', 'Cascadia Mono', 'SF Mono', Menlo, Consolas, 'DejaVu Sans Mono', 'Liberation Mono', monospace; font-size: 15px; white-space: pre; }
.terminal .b { font-weight: bold; }
.terminal .i { font-style: italic; }
.title { font-family: 'JetBrains Mono', 'Cascadia Mono', 'SF Mono', Menlo, Consolas, 'DejaVu Sans Mono', 'Liberation Mono', monospace; font-size: 13px; }
</style>
<defs>
<filter id="shadow" x="-10%" y="-10%" width="120%" height="130%"><feDropShadow dx="0" dy="3" stdDeviation="5" flood-color="#000000" flood-opacity="0.3"/></filter>
<clipPath id="window"><rect x="16" y="16" width="712" height="454" rx="10"/></clipPath>
</defs>
<rect x="16" y="16" width="712" height="454" rx="10" fill="#161622" filter="url(#shadow)"/>
<rect x="16" y="16" width="712" height="34" fill="#1f2430" clip-path="url(#window)"/>
<circle cx="36" cy="33" r="6" fill="#ff5f57"/>
<circle cx="56" cy="33" r="6" fill="#febc2e"/>
<circle cx="76" cy="33" r="6" fill="#28c840"/>
<text class="title" x="372" y="33" text-anchor="middle" dominant-baseline="central" fill="#9aa3b5">perl examples/widgets/radar-chart.pl</text>
<rect x="16.5" y="16.5" width="711" height="453" rx="10" fill="none" stroke="#ffffff" stroke-opacity="0.08" stroke-width="1"/>
<g shape-rendering="crispEdges">
<rect x="363" y="186" width="18" height="18" fill="#1f3253"/>
<rect x="354" y="204" width="45" height="18" fill="#1f3253"/>
<rect x="345" y="222" width="72" height="18" fill="#4e3c48"/>
<rect x="309" y="240" width="27" height="18" fill="#472723"/>
<rect x="336" y="240" width="90" height="18" fill="#4e3c48"/>
<rect x="426" y="240" width="36" height="18" fill="#472723"/>
<rect x="291" y="258" width="36" height="36" fill="#472723"/>
<rect x="327" y="258" width="117" height="54" fill="#4e3c48"/>
<rect x="444" y="258" width="18" height="18" fill="#472723"/>
<rect x="444" y="276" width="9" height="18" fill="#472723"/>
<rect x="282" y="294" width="45" height="18" fill="#472723"/>
<rect x="282" y="312" width="36" height="18" fill="#472723"/>
<rect x="318" y="312" width="126" height="18" fill="#4e3c48"/>
<rect x="444" y="312" width="9" height="18" fill="#1f3253"/>
<rect x="282" y="330" width="45" height="18" fill="#472723"/>
<rect x="327" y="330" width="108" height="18" fill="#4e3c48"/>
<rect x="435" y="330" width="18" height="18" fill="#1f3253"/>
<rect x="300" y="348" width="45" height="18" fill="#472723"/>
<rect x="345" y="348" width="72" height="18" fill="#4e3c48"/>
<rect x="417" y="348" width="9" height="18" fill="#1f3253"/>
<rect x="336" y="366" width="27" height="18" fill="#472723"/>
<rect x="363" y="366" width="27" height="18" fill="#4e3c48"/>
</g>
<circle cx="347.25" cy="183.75" r="1.8" fill="#32323d"/>
<circle cx="351.75" cy="183.75" r="1.8" fill="#32323d"/>
<circle cx="356.25" cy="179.25" r="1.8" fill="#32323d"/>
<circle cx="360.75" cy="179.25" r="1.8" fill="#32323d"/>
<circle cx="365.25" cy="174.75" r="1.8" fill="#32323d"/>
<circle cx="369.75" cy="174.75" r="1.8" fill="#32323d"/>
<circle cx="401.25" cy="183.75" r="1.8" fill="#32323d"/>
<circle cx="311.25" cy="201.75" r="1.8" fill="#32323d"/>
<circle cx="315.75" cy="201.75" r="1.8" fill="#32323d"/>
<circle cx="320.25" cy="197.25" r="1.8" fill="#32323d"/>
<circle cx="324.75" cy="197.25" r="1.8" fill="#32323d"/>
<circle cx="329.25" cy="192.75" r="1.8" fill="#32323d"/>
<circle cx="333.75" cy="192.75" r="1.8" fill="#32323d"/>
<circle cx="338.25" cy="188.25" r="1.8" fill="#32323d"/>
<circle cx="342.75" cy="188.25" r="1.8" fill="#32323d"/>
<circle cx="365.25" cy="197.25" r="1.8" fill="#3987e5"/>
<circle cx="369.75" cy="188.25" r="1.8" fill="#3987e5"/>
<circle cx="369.75" cy="192.75" r="1.8" fill="#3987e5"/>
<circle cx="365.25" cy="201.75" r="1.8" fill="#3987e5"/>
<circle cx="374.25" cy="188.25" r="1.8" fill="#32323d"/>
<circle cx="374.25" cy="192.75" r="1.8" fill="#32323d"/>
<circle cx="374.25" cy="197.25" r="1.8" fill="#32323d"/>
<circle cx="374.25" cy="201.75" r="1.8" fill="#32323d"/>
<circle cx="383.25" cy="188.25" r="1.8" fill="#3987e5"/>
<circle cx="383.25" cy="192.75" r="1.8" fill="#3987e5"/>
<circle cx="387.75" cy="197.25" r="1.8" fill="#3987e5"/>
<circle cx="392.25" cy="201.75" r="1.8" fill="#3987e5"/>
<circle cx="405.75" cy="188.25" r="1.8" fill="#32323d"/>
<circle cx="410.25" cy="188.25" r="1.8" fill="#32323d"/>
<circle cx="414.75" cy="192.75" r="1.8" fill="#32323d"/>
<circle cx="419.25" cy="192.75" r="1.8" fill="#32323d"/>
<circle cx="423.75" cy="197.25" r="1.8" fill="#32323d"/>
<circle cx="428.25" cy="201.75" r="1.8" fill="#32323d"/>
<circle cx="432.75" cy="201.75" r="1.8" fill="#32323d"/>
<circle cx="275.25" cy="219.75" r="1.8" fill="#32323d"/>
<circle cx="279.75" cy="219.75" r="1.8" fill="#32323d"/>
<circle cx="284.25" cy="215.25" r="1.8" fill="#32323d"/>
<circle cx="288.75" cy="215.25" r="1.8" fill="#32323d"/>
<circle cx="293.25" cy="210.75" r="1.8" fill="#32323d"/>
<circle cx="297.75" cy="210.75" r="1.8" fill="#32323d"/>
<circle cx="302.25" cy="206.25" r="1.8" fill="#32323d"/>
<circle cx="306.75" cy="206.25" r="1.8" fill="#32323d"/>
<circle cx="356.25" cy="215.25" r="1.8" fill="#3987e5"/>
<circle cx="360.75" cy="206.25" r="1.8" fill="#3987e5"/>
<circle cx="360.75" cy="210.75" r="1.8" fill="#3987e5"/>
<circle cx="356.25" cy="219.75" r="1.8" fill="#3987e5"/>
<circle cx="369.75" cy="219.75" r="1.8" fill="#d95926"/>
<circle cx="383.25" cy="219.75" r="1.8" fill="#d95926"/>
<circle cx="396.75" cy="206.25" r="1.8" fill="#3987e5"/>
<circle cx="396.75" cy="210.75" r="1.8" fill="#3987e5"/>
<circle cx="401.25" cy="215.25" r="1.8" fill="#3987e5"/>
<circle cx="405.75" cy="219.75" r="1.8" fill="#3987e5"/>
<circle cx="437.25" cy="206.25" r="1.8" fill="#32323d"/>
<circle cx="441.75" cy="206.25" r="1.8" fill="#32323d"/>
<circle cx="446.25" cy="210.75" r="1.8" fill="#32323d"/>
<circle cx="450.75" cy="210.75" r="1.8" fill="#32323d"/>
<circle cx="455.25" cy="215.25" r="1.8" fill="#32323d"/>
<circle cx="459.75" cy="215.25" r="1.8" fill="#32323d"/>
<circle cx="464.25" cy="219.75" r="1.8" fill="#32323d"/>
<circle cx="468.75" cy="219.75" r="1.8" fill="#32323d"/>
<circle cx="266.25" cy="224.25" r="1.8" fill="#32323d"/>
<circle cx="266.25" cy="233.25" r="1.8" fill="#32323d"/>
<circle cx="270.75" cy="224.25" r="1.8" fill="#32323d"/>
<circle cx="270.75" cy="233.25" r="1.8" fill="#32323d"/>
<circle cx="275.25" cy="237.75" r="1.8" fill="#32323d"/>
<circle cx="279.75" cy="237.75" r="1.8" fill="#32323d"/>
<circle cx="320.25" cy="237.75" r="1.8" fill="#d95926"/>
<circle cx="324.75" cy="237.75" r="1.8" fill="#d95926"/>
<circle cx="329.25" cy="233.25" r="1.8" fill="#d95926"/>
<circle cx="333.75" cy="233.25" r="1.8" fill="#d95926"/>
<circle cx="338.25" cy="233.25" r="1.8" fill="#d95926"/>
<circle cx="342.75" cy="228.75" r="1.8" fill="#d95926"/>
<circle cx="347.25" cy="228.75" r="1.8" fill="#d95926"/>
<circle cx="347.25" cy="233.25" r="1.8" fill="#d95926"/>
<circle cx="351.75" cy="224.25" r="1.8" fill="#d95926"/>
<circle cx="351.75" cy="228.75" r="1.8" fill="#d95926"/>
<circle cx="347.25" cy="237.75" r="1.8" fill="#d95926"/>
<circle cx="356.25" cy="224.25" r="1.8" fill="#d95926"/>
<circle cx="360.75" cy="224.25" r="1.8" fill="#d95926"/>
<circle cx="365.25" cy="224.25" r="1.8" fill="#d95926"/>
<circle cx="374.25" cy="224.25" r="1.8" fill="#32323d"/>
<circle cx="374.25" cy="228.75" r="1.8" fill="#32323d"/>
<circle cx="374.25" cy="233.25" r="1.8" fill="#32323d"/>
<circle cx="374.25" cy="237.75" r="1.8" fill="#32323d"/>
<circle cx="378.75" cy="237.75" r="1.8" fill="#32323d"/>
<circle cx="392.25" cy="224.25" r="1.8" fill="#d95926"/>
<circle cx="396.75" cy="224.25" r="1.8" fill="#d95926"/>
<circle cx="401.25" cy="224.25" r="1.8" fill="#d95926"/>
<circle cx="405.75" cy="224.25" r="1.8" fill="#d95926"/>
<circle cx="410.25" cy="224.25" r="1.8" fill="#d95926"/>
<circle cx="410.25" cy="228.75" r="1.8" fill="#d95926"/>
<circle cx="414.75" cy="228.75" r="1.8" fill="#d95926"/>
<circle cx="419.25" cy="228.75" r="1.8" fill="#d95926"/>
<circle cx="419.25" cy="233.25" r="1.8" fill="#d95926"/>
<circle cx="423.75" cy="228.75" r="1.8" fill="#d95926"/>
<circle cx="423.75" cy="237.75" r="1.8" fill="#d95926"/>
<circle cx="428.25" cy="228.75" r="1.8" fill="#d95926"/>
<circle cx="432.75" cy="233.25" r="1.8" fill="#d95926"/>
<circle cx="437.25" cy="233.25" r="1.8" fill="#d95926"/>
<circle cx="441.75" cy="233.25" r="1.8" fill="#d95926"/>
<circle cx="446.25" cy="233.25" r="1.8" fill="#d95926"/>
<circle cx="450.75" cy="233.25" r="1.8" fill="#d95926"/>
<circle cx="455.25" cy="233.25" r="1.8" fill="#d95926"/>
<circle cx="459.75" cy="237.75" r="1.8" fill="#d95926"/>
<circle cx="473.25" cy="224.25" r="1.8" fill="#32323d"/>
<circle cx="473.25" cy="233.25" r="1.8" fill="#32323d"/>
<circle cx="477.75" cy="224.25" r="1.8" fill="#32323d"/>
<circle cx="477.75" cy="233.25" r="1.8" fill="#32323d"/>
<circle cx="482.25" cy="228.75" r="1.8" fill="#32323d"/>
<circle cx="482.25" cy="233.25" r="1.8" fill="#32323d"/>
<circle cx="482.25" cy="237.75" r="1.8" fill="#32323d"/>
<circle cx="261.75" cy="242.25" r="1.8" fill="#32323d"/>
<circle cx="261.75" cy="246.75" r="1.8" fill="#32323d"/>
<circle cx="261.75" cy="251.25" r="1.8" fill="#32323d"/>
<circle cx="261.75" cy="255.75" r="1.8" fill="#32323d"/>
<circle cx="284.25" cy="242.25" r="1.8" fill="#32323d"/>
<circle cx="288.75" cy="246.75" r="1.8" fill="#32323d"/>
<circle cx="302.25" cy="246.75" r="1.8" fill="#d95926"/>
<circle cx="306.75" cy="246.75" r="1.8" fill="#d95926"/>
<circle cx="311.25" cy="242.25" r="1.8" fill="#d95926"/>
<circle cx="315.75" cy="242.25" r="1.8" fill="#d95926"/>
<circle cx="329.25" cy="255.75" r="1.8" fill="#32323d"/>
<circle cx="333.75" cy="255.75" r="1.8" fill="#32323d"/>
<circle cx="338.25" cy="251.25" r="1.8" fill="#3987e5"/>
<circle cx="342.75" cy="242.25" r="1.8" fill="#3987e5"/>
<circle cx="342.75" cy="246.75" r="1.8" fill="#3987e5"/>
<circle cx="338.25" cy="255.75" r="1.8" fill="#3987e5"/>
<circle cx="347.25" cy="246.75" r="1.8" fill="#32323d"/>
<circle cx="351.75" cy="246.75" r="1.8" fill="#32323d"/>
<circle cx="356.25" cy="242.25" r="1.8" fill="#32323d"/>
<circle cx="360.75" cy="242.25" r="1.8" fill="#32323d"/>
<circle cx="374.25" cy="242.25" r="1.8" fill="#32323d"/>
<circle cx="374.25" cy="246.75" r="1.8" fill="#32323d"/>
<circle cx="374.25" cy="251.25" r="1.8" fill="#32323d"/>
<circle cx="374.25" cy="255.75" r="1.8" fill="#32323d"/>
<circle cx="387.75" cy="242.25" r="1.8" fill="#32323d"/>
<circle cx="392.25" cy="242.25" r="1.8" fill="#32323d"/>
<circle cx="396.75" cy="246.75" r="1.8" fill="#32323d"/>
<circle cx="401.25" cy="251.25" r="1.8" fill="#32323d"/>
<circle cx="405.75" cy="251.25" r="1.8" fill="#32323d"/>
<circle cx="410.25" cy="255.75" r="1.8" fill="#32323d"/>
<circle cx="414.75" cy="255.75" r="1.8" fill="#32323d"/>
<circle cx="423.75" cy="242.25" r="1.8" fill="#3987e5"/>
<circle cx="428.25" cy="246.75" r="1.8" fill="#3987e5"/>
<circle cx="432.75" cy="251.25" r="1.8" fill="#3987e5"/>
<circle cx="446.25" cy="251.25" r="1.8" fill="#32323d"/>
<circle cx="450.75" cy="246.75" r="1.8" fill="#32323d"/>
<circle cx="455.25" cy="246.75" r="1.8" fill="#32323d"/>
<circle cx="459.75" cy="242.25" r="1.8" fill="#32323d"/>
<circle cx="464.25" cy="246.75" r="1.8" fill="#d95926"/>
<circle cx="464.25" cy="251.25" r="1.8" fill="#d95926"/>
<circle cx="468.75" cy="242.25" r="1.8" fill="#d95926"/>
<circle cx="464.25" cy="255.75" r="1.8" fill="#d95926"/>
<circle cx="482.25" cy="242.25" r="1.8" fill="#32323d"/>
<circle cx="482.25" cy="246.75" r="1.8" fill="#32323d"/>
<circle cx="482.25" cy="251.25" r="1.8" fill="#32323d"/>
<circle cx="482.25" cy="255.75" r="1.8" fill="#32323d"/>
<circle cx="261.75" cy="260.25" r="1.8" fill="#32323d"/>
<circle cx="261.75" cy="264.75" r="1.8" fill="#32323d"/>
<circle cx="261.75" cy="269.25" r="1.8" fill="#32323d"/>
<circle cx="261.75" cy="273.75" r="1.8" fill="#32323d"/>
<circle cx="293.25" cy="260.25" r="1.8" fill="#d95926"/>
<circle cx="293.25" cy="264.75" r="1.8" fill="#d95926"/>
<circle cx="293.25" cy="269.25" r="1.8" fill="#d95926"/>
<circle cx="293.25" cy="273.75" r="1.8" fill="#d95926"/>
<circle cx="311.25" cy="260.25" r="1.8" fill="#32323d"/>
<circle cx="315.75" cy="260.25" r="1.8" fill="#32323d"/>
<circle cx="315.75" cy="264.75" r="1.8" fill="#32323d"/>
<circle cx="315.75" cy="269.25" r="1.8" fill="#32323d"/>
<circle cx="315.75" cy="273.75" r="1.8" fill="#32323d"/>
<circle cx="320.25" cy="260.25" r="1.8" fill="#32323d"/>
<circle cx="320.25" cy="264.75" r="1.8" fill="#32323d"/>
<circle cx="324.75" cy="260.25" r="1.8" fill="#32323d"/>
<circle cx="324.75" cy="264.75" r="1.8" fill="#32323d"/>
<circle cx="338.25" cy="273.75" r="1.8" fill="#32323d"/>
<circle cx="374.25" cy="260.25" r="1.8" fill="#32323d"/>
<circle cx="374.25" cy="264.75" r="1.8" fill="#32323d"/>
<circle cx="374.25" cy="269.25" r="1.8" fill="#32323d"/>
<circle cx="374.25" cy="273.75" r="1.8" fill="#32323d"/>
<circle cx="414.75" cy="269.25" r="1.8" fill="#32323d"/>
<circle cx="410.25" cy="273.75" r="1.8" fill="#32323d"/>
<circle cx="419.25" cy="260.25" r="1.8" fill="#32323d"/>
<circle cx="419.25" cy="269.25" r="1.8" fill="#32323d"/>
<circle cx="423.75" cy="260.25" r="1.8" fill="#32323d"/>
<circle cx="423.75" cy="264.75" r="1.8" fill="#32323d"/>
<circle cx="428.25" cy="260.25" r="1.8" fill="#32323d"/>
<circle cx="428.25" cy="264.75" r="1.8" fill="#32323d"/>
<circle cx="428.25" cy="269.25" r="1.8" fill="#32323d"/>
<circle cx="432.75" cy="260.25" r="1.8" fill="#32323d"/>
<circle cx="428.25" cy="273.75" r="1.8" fill="#32323d"/>
<circle cx="437.25" cy="260.25" r="1.8" fill="#3987e5"/>
<circle cx="437.25" cy="264.75" r="1.8" fill="#3987e5"/>
<circle cx="441.75" cy="269.25" r="1.8" fill="#3987e5"/>
<circle cx="441.75" cy="273.75" r="1.8" fill="#3987e5"/>
<circle cx="459.75" cy="260.25" r="1.8" fill="#d95926"/>
<circle cx="459.75" cy="264.75" r="1.8" fill="#d95926"/>
<circle cx="459.75" cy="269.25" r="1.8" fill="#d95926"/>
<circle cx="459.75" cy="273.75" r="1.8" fill="#d95926"/>
<circle cx="482.25" cy="260.25" r="1.8" fill="#32323d"/>
<circle cx="482.25" cy="264.75" r="1.8" fill="#32323d"/>
<circle cx="482.25" cy="269.25" r="1.8" fill="#32323d"/>
<circle cx="482.25" cy="273.75" r="1.8" fill="#32323d"/>
<circle cx="261.75" cy="278.25" r="1.8" fill="#32323d"/>
<circle cx="261.75" cy="282.75" r="1.8" fill="#32323d"/>
<circle cx="261.75" cy="287.25" r="1.8" fill="#32323d"/>
<circle cx="261.75" cy="291.75" r="1.8" fill="#32323d"/>
<circle cx="288.75" cy="278.25" r="1.8" fill="#d95926"/>
<circle cx="288.75" cy="282.75" r="1.8" fill="#d95926"/>
<circle cx="288.75" cy="287.25" r="1.8" fill="#d95926"/>
<circle cx="288.75" cy="291.75" r="1.8" fill="#d95926"/>
<circle cx="315.75" cy="278.25" r="1.8" fill="#32323d"/>
<circle cx="315.75" cy="282.75" r="1.8" fill="#32323d"/>
<circle cx="315.75" cy="287.25" r="1.8" fill="#32323d"/>
<circle cx="315.75" cy="291.75" r="1.8" fill="#32323d"/>
<circle cx="324.75" cy="287.25" r="1.8" fill="#3987e5"/>
<circle cx="324.75" cy="291.75" r="1.8" fill="#3987e5"/>
<circle cx="329.25" cy="278.25" r="1.8" fill="#3987e5"/>
<circle cx="329.25" cy="282.75" r="1.8" fill="#3987e5"/>
<circle cx="342.75" cy="278.25" r="1.8" fill="#32323d"/>
<circle cx="347.25" cy="278.25" r="1.8" fill="#32323d"/>
<circle cx="351.75" cy="282.75" r="1.8" fill="#32323d"/>
<circle cx="356.25" cy="287.25" r="1.8" fill="#32323d"/>
<circle cx="360.75" cy="287.25" r="1.8" fill="#32323d"/>
<circle cx="365.25" cy="291.75" r="1.8" fill="#32323d"/>
<circle cx="369.75" cy="291.75" r="1.8" fill="#32323d"/>
<circle cx="374.25" cy="278.25" r="1.8" fill="#32323d"/>
<circle cx="374.25" cy="282.75" r="1.8" fill="#32323d"/>
<circle cx="374.25" cy="287.25" r="1.8" fill="#32323d"/>
<circle cx="374.25" cy="291.75" r="1.8" fill="#32323d"/>
<circle cx="378.75" cy="291.75" r="1.8" fill="#32323d"/>
<circle cx="387.75" cy="287.25" r="1.8" fill="#32323d"/>
<circle cx="383.25" cy="291.75" r="1.8" fill="#32323d"/>
<circle cx="392.25" cy="282.75" r="1.8" fill="#32323d"/>
<circle cx="396.75" cy="282.75" r="1.8" fill="#32323d"/>
<circle cx="401.25" cy="278.25" r="1.8" fill="#32323d"/>
<circle cx="405.75" cy="278.25" r="1.8" fill="#32323d"/>
<circle cx="428.25" cy="278.25" r="1.8" fill="#32323d"/>
<circle cx="428.25" cy="282.75" r="1.8" fill="#32323d"/>
<circle cx="428.25" cy="287.25" r="1.8" fill="#32323d"/>
<circle cx="428.25" cy="291.75" r="1.8" fill="#32323d"/>
<circle cx="441.75" cy="278.25" r="1.8" fill="#3987e5"/>
<circle cx="441.75" cy="282.75" r="1.8" fill="#3987e5"/>
<circle cx="441.75" cy="287.25" r="1.8" fill="#3987e5"/>
<circle cx="446.25" cy="291.75" r="1.8" fill="#d95926"/>
<circle cx="450.75" cy="291.75" r="1.8" fill="#d95926"/>
<circle cx="455.25" cy="278.25" r="1.8" fill="#d95926"/>
<circle cx="455.25" cy="282.75" r="1.8" fill="#d95926"/>
<circle cx="455.25" cy="287.25" r="1.8" fill="#d95926"/>
<circle cx="482.25" cy="278.25" r="1.8" fill="#32323d"/>
<circle cx="482.25" cy="282.75" r="1.8" fill="#32323d"/>
<circle cx="482.25" cy="287.25" r="1.8" fill="#32323d"/>
<circle cx="482.25" cy="291.75" r="1.8" fill="#32323d"/>
<circle cx="261.75" cy="296.25" r="1.8" fill="#32323d"/>
<circle cx="261.75" cy="300.75" r="1.8" fill="#32323d"/>
<circle cx="261.75" cy="305.25" r="1.8" fill="#32323d"/>
<circle cx="261.75" cy="309.75" r="1.8" fill="#32323d"/>
<circle cx="284.25" cy="296.25" r="1.8" fill="#d95926"/>
<circle cx="284.25" cy="300.75" r="1.8" fill="#d95926"/>
<circle cx="284.25" cy="305.25" r="1.8" fill="#d95926"/>
<circle cx="284.25" cy="309.75" r="1.8" fill="#d95926"/>
<circle cx="315.75" cy="296.25" r="1.8" fill="#32323d"/>
<circle cx="315.75" cy="300.75" r="1.8" fill="#32323d"/>
<circle cx="315.75" cy="305.25" r="1.8" fill="#32323d"/>
<circle cx="315.75" cy="309.75" r="1.8" fill="#32323d"/>
<circle cx="320.25" cy="305.25" r="1.8" fill="#3987e5"/>
<circle cx="324.75" cy="296.25" r="1.8" fill="#3987e5"/>
<circle cx="324.75" cy="300.75" r="1.8" fill="#3987e5"/>
<circle cx="320.25" cy="309.75" r="1.8" fill="#3987e5"/>
<circle cx="347.25" cy="309.75" r="1.8" fill="#32323d"/>
<circle cx="351.75" cy="309.75" r="1.8" fill="#32323d"/>
<circle cx="356.25" cy="305.25" r="1.8" fill="#32323d"/>
<circle cx="360.75" cy="305.25" r="1.8" fill="#32323d"/>
<circle cx="365.25" cy="300.75" r="1.8" fill="#32323d"/>
<circle cx="369.75" cy="300.75" r="1.8" fill="#32323d"/>
<circle cx="374.25" cy="296.25" r="1.8" fill="#32323d"/>
<circle cx="374.25" cy="300.75" r="1.8" fill="#32323d"/>
<circle cx="374.25" cy="305.25" r="1.8" fill="#32323d"/>
<circle cx="378.75" cy="300.75" r="1.8" fill="#32323d"/>
<circle cx="374.25" cy="309.75" r="1.8" fill="#32323d"/>
<circle cx="383.25" cy="300.75" r="1.8" fill="#32323d"/>
<circle cx="387.75" cy="305.25" r="1.8" fill="#32323d"/>
<circle cx="392.25" cy="305.25" r="1.8" fill="#32323d"/>
<circle cx="396.75" cy="309.75" r="1.8" fill="#32323d"/>
<circle cx="401.25" cy="309.75" r="1.8" fill="#32323d"/>
<circle cx="428.25" cy="296.25" r="1.8" fill="#32323d"/>
<circle cx="428.25" cy="300.75" r="1.8" fill="#32323d"/>
<circle cx="428.25" cy="305.25" r="1.8" fill="#32323d"/>
<circle cx="428.25" cy="309.75" r="1.8" fill="#32323d"/>
<circle cx="446.25" cy="296.25" r="1.8" fill="#d95926"/>
<circle cx="446.25" cy="300.75" r="1.8" fill="#d95926"/>
<circle cx="446.25" cy="305.25" r="1.8" fill="#d95926"/>
<circle cx="450.75" cy="296.25" r="1.8" fill="#d95926"/>
<circle cx="450.75" cy="300.75" r="1.8" fill="#d95926"/>
<circle cx="446.25" cy="309.75" r="1.8" fill="#d95926"/>
<circle cx="450.75" cy="309.75" r="1.8" fill="#d95926"/>
<circle cx="482.25" cy="296.25" r="1.8" fill="#32323d"/>
<circle cx="482.25" cy="300.75" r="1.8" fill="#32323d"/>
<circle cx="482.25" cy="305.25" r="1.8" fill="#32323d"/>
<circle cx="482.25" cy="309.75" r="1.8" fill="#32323d"/>
<circle cx="261.75" cy="314.25" r="1.8" fill="#32323d"/>
<circle cx="261.75" cy="318.75" r="1.8" fill="#32323d"/>
<circle cx="261.75" cy="323.25" r="1.8" fill="#32323d"/>
<circle cx="261.75" cy="327.75" r="1.8" fill="#32323d"/>
<circle cx="279.75" cy="314.25" r="1.8" fill="#d95926"/>
<circle cx="279.75" cy="318.75" r="1.8" fill="#d95926"/>
<circle cx="279.75" cy="323.25" r="1.8" fill="#d95926"/>
<circle cx="279.75" cy="327.75" r="1.8" fill="#d95926"/>
<circle cx="320.25" cy="314.25" r="1.8" fill="#3987e5"/>
<circle cx="320.25" cy="318.75" r="1.8" fill="#3987e5"/>
<circle cx="329.25" cy="323.25" r="1.8" fill="#32323d"/>
<circle cx="333.75" cy="318.75" r="1.8" fill="#32323d"/>
<circle cx="338.25" cy="314.25" r="1.8" fill="#32323d"/>
<circle cx="342.75" cy="314.25" r="1.8" fill="#32323d"/>
<circle cx="374.25" cy="314.25" r="1.8" fill="#32323d"/>
<circle cx="374.25" cy="318.75" r="1.8" fill="#32323d"/>
<circle cx="374.25" cy="323.25" r="1.8" fill="#32323d"/>
<circle cx="374.25" cy="327.75" r="1.8" fill="#32323d"/>
<circle cx="405.75" cy="314.25" r="1.8" fill="#32323d"/>
<circle cx="410.25" cy="314.25" r="1.8" fill="#32323d"/>
<circle cx="414.75" cy="318.75" r="1.8" fill="#32323d"/>
<circle cx="419.25" cy="318.75" r="1.8" fill="#32323d"/>
<circle cx="423.75" cy="323.25" r="1.8" fill="#32323d"/>
<circle cx="428.25" cy="314.25" r="1.8" fill="#32323d"/>
<circle cx="428.25" cy="318.75" r="1.8" fill="#32323d"/>
<circle cx="428.25" cy="323.25" r="1.8" fill="#32323d"/>
<circle cx="428.25" cy="327.75" r="1.8" fill="#32323d"/>
<circle cx="432.75" cy="327.75" r="1.8" fill="#32323d"/>
<circle cx="441.75" cy="314.25" r="1.8" fill="#d95926"/>
<circle cx="441.75" cy="318.75" r="1.8" fill="#d95926"/>
<circle cx="441.75" cy="323.25" r="1.8" fill="#d95926"/>
<circle cx="437.25" cy="327.75" r="1.8" fill="#d95926"/>
<circle cx="450.75" cy="314.25" r="1.8" fill="#3987e5"/>
<circle cx="450.75" cy="318.75" r="1.8" fill="#3987e5"/>
<circle cx="455.25" cy="323.25" r="1.8" fill="#3987e5"/>
<circle cx="455.25" cy="327.75" r="1.8" fill="#3987e5"/>
<circle cx="482.25" cy="314.25" r="1.8" fill="#32323d"/>
<circle cx="482.25" cy="318.75" r="1.8" fill="#32323d"/>
<circle cx="482.25" cy="323.25" r="1.8" fill="#32323d"/>
<circle cx="482.25" cy="327.75" r="1.8" fill="#32323d"/>
<circle cx="261.75" cy="332.25" r="1.8" fill="#32323d"/>
<circle cx="261.75" cy="336.75" r="1.8" fill="#32323d"/>
<circle cx="261.75" cy="341.25" r="1.8" fill="#32323d"/>
<circle cx="261.75" cy="345.75" r="1.8" fill="#32323d"/>
<circle cx="275.25" cy="341.25" r="1.8" fill="#d95926"/>
<circle cx="279.75" cy="332.25" r="1.8" fill="#d95926"/>
<circle cx="279.75" cy="336.75" r="1.8" fill="#d95926"/>
<circle cx="275.25" cy="345.75" r="1.8" fill="#d95926"/>
<circle cx="284.25" cy="345.75" r="1.8" fill="#32323d"/>
<circle cx="288.75" cy="345.75" r="1.8" fill="#32323d"/>
<circle cx="293.25" cy="341.25" r="1.8" fill="#32323d"/>
<circle cx="297.75" cy="341.25" r="1.8" fill="#32323d"/>
<circle cx="302.25" cy="336.75" r="1.8" fill="#32323d"/>
<circle cx="306.75" cy="332.25" r="1.8" fill="#32323d"/>
<circle cx="311.25" cy="332.25" r="1.8" fill="#32323d"/>
<circle cx="320.25" cy="332.25" r="1.8" fill="#3987e5"/>
<circle cx="324.75" cy="336.75" r="1.8" fill="#3987e5"/>
<circle cx="329.25" cy="341.25" r="1.8" fill="#3987e5"/>
<circle cx="333.75" cy="345.75" r="1.8" fill="#3987e5"/>
<circle cx="338.25" cy="341.25" r="1.8" fill="#32323d"/>
<circle cx="342.75" cy="341.25" r="1.8" fill="#32323d"/>
<circle cx="347.25" cy="345.75" r="1.8" fill="#32323d"/>
<circle cx="351.75" cy="345.75" r="1.8" fill="#32323d"/>
<circle cx="374.25" cy="332.25" r="1.8" fill="#32323d"/>
<circle cx="374.25" cy="336.75" r="1.8" fill="#32323d"/>
<circle cx="374.25" cy="341.25" r="1.8" fill="#32323d"/>
<circle cx="374.25" cy="345.75" r="1.8" fill="#32323d"/>
<circle cx="396.75" cy="345.75" r="1.8" fill="#32323d"/>
<circle cx="405.75" cy="341.25" r="1.8" fill="#32323d"/>
<circle cx="401.25" cy="345.75" r="1.8" fill="#32323d"/>
<circle cx="410.25" cy="336.75" r="1.8" fill="#32323d"/>
<circle cx="414.75" cy="336.75" r="1.8" fill="#32323d"/>
<circle cx="423.75" cy="345.75" r="1.8" fill="#d95926"/>
<circle cx="428.25" cy="341.25" r="1.8" fill="#d95926"/>
<circle cx="432.75" cy="336.75" r="1.8" fill="#d95926"/>
<circle cx="446.25" cy="336.75" r="1.8" fill="#32323d"/>
<circle cx="450.75" cy="336.75" r="1.8" fill="#32323d"/>
<circle cx="464.25" cy="345.75" r="1.8" fill="#32323d"/>
<circle cx="468.75" cy="345.75" r="1.8" fill="#32323d"/>
<circle cx="482.25" cy="332.25" r="1.8" fill="#32323d"/>
<circle cx="482.25" cy="336.75" r="1.8" fill="#32323d"/>
<circle cx="482.25" cy="341.25" r="1.8" fill="#32323d"/>
<circle cx="482.25" cy="345.75" r="1.8" fill="#32323d"/>
<circle cx="266.25" cy="354.75" r="1.8" fill="#32323d"/>
<circle cx="270.75" cy="354.75" r="1.8" fill="#32323d"/>
<circle cx="266.25" cy="363.75" r="1.8" fill="#32323d"/>
<circle cx="270.75" cy="363.75" r="1.8" fill="#32323d"/>
<circle cx="284.25" cy="354.75" r="1.8" fill="#d95926"/>
<circle cx="288.75" cy="354.75" r="1.8" fill="#d95926"/>
<circle cx="293.25" cy="359.25" r="1.8" fill="#d95926"/>
<circle cx="297.75" cy="359.25" r="1.8" fill="#d95926"/>
<circle cx="302.25" cy="363.75" r="1.8" fill="#d95926"/>
<circle cx="306.75" cy="363.75" r="1.8" fill="#d95926"/>
<circle cx="338.25" cy="350.25" r="1.8" fill="#3987e5"/>
<circle cx="342.75" cy="354.75" r="1.8" fill="#3987e5"/>
<circle cx="347.25" cy="359.25" r="1.8" fill="#3987e5"/>
<circle cx="351.75" cy="363.75" r="1.8" fill="#3987e5"/>
<circle cx="356.25" cy="350.25" r="1.8" fill="#32323d"/>
<circle cx="360.75" cy="350.25" r="1.8" fill="#32323d"/>
<circle cx="365.25" cy="354.75" r="1.8" fill="#32323d"/>
<circle cx="369.75" cy="354.75" r="1.8" fill="#32323d"/>
<circle cx="374.25" cy="350.25" r="1.8" fill="#32323d"/>
<circle cx="374.25" cy="354.75" r="1.8" fill="#32323d"/>
<circle cx="374.25" cy="359.25" r="1.8" fill="#32323d"/>
<circle cx="378.75" cy="354.75" r="1.8" fill="#32323d"/>
<circle cx="374.25" cy="363.75" r="1.8" fill="#32323d"/>
<circle cx="383.25" cy="354.75" r="1.8" fill="#32323d"/>
<circle cx="387.75" cy="350.25" r="1.8" fill="#32323d"/>
<circle cx="392.25" cy="350.25" r="1.8" fill="#32323d"/>
<circle cx="405.75" cy="363.75" r="1.8" fill="#d95926"/>
<circle cx="410.25" cy="359.25" r="1.8" fill="#d95926"/>
<circle cx="414.75" cy="354.75" r="1.8" fill="#d95926"/>
<circle cx="410.25" cy="363.75" r="1.8" fill="#d95926"/>
<circle cx="414.75" cy="363.75" r="1.8" fill="#d95926"/>
<circle cx="419.25" cy="350.25" r="1.8" fill="#d95926"/>
<circle cx="423.75" cy="359.25" r="1.8" fill="#d95926"/>
<circle cx="419.25" cy="363.75" r="1.8" fill="#d95926"/>
<circle cx="428.25" cy="359.25" r="1.8" fill="#3987e5"/>
<circle cx="432.75" cy="354.75" r="1.8" fill="#3987e5"/>
<circle cx="437.25" cy="354.75" r="1.8" fill="#3987e5"/>
<circle cx="441.75" cy="354.75" r="1.8" fill="#3987e5"/>
<circle cx="446.25" cy="350.25" r="1.8" fill="#3987e5"/>
<circle cx="450.75" cy="350.25" r="1.8" fill="#3987e5"/>
<circle cx="468.75" cy="363.75" r="1.8" fill="#32323d"/>
<circle cx="473.25" cy="350.25" r="1.8" fill="#32323d"/>
<circle cx="473.25" cy="359.25" r="1.8" fill="#32323d"/>
<circle cx="477.75" cy="350.25" r="1.8" fill="#32323d"/>
<circle cx="477.75" cy="359.25" r="1.8" fill="#32323d"/>
<circle cx="482.25" cy="350.25" r="1.8" fill="#32323d"/>
<circle cx="482.25" cy="354.75" r="1.8" fill="#32323d"/>
<circle cx="275.25" cy="368.25" r="1.8" fill="#32323d"/>
<circle cx="279.75" cy="368.25" r="1.8" fill="#32323d"/>
<circle cx="284.25" cy="372.75" r="1.8" fill="#32323d"/>
<circle cx="288.75" cy="372.75" r="1.8" fill="#32323d"/>
<circle cx="293.25" cy="377.25" r="1.8" fill="#32323d"/>
<circle cx="297.75" cy="377.25" r="1.8" fill="#32323d"/>
<circle cx="302.25" cy="381.75" r="1.8" fill="#32323d"/>
<circle cx="311.25" cy="368.25" r="1.8" fill="#d95926"/>
<circle cx="315.75" cy="368.25" r="1.8" fill="#d95926"/>
<circle cx="320.25" cy="372.75" r="1.8" fill="#d95926"/>
<circle cx="324.75" cy="372.75" r="1.8" fill="#d95926"/>
<circle cx="329.25" cy="372.75" r="1.8" fill="#d95926"/>
<circle cx="333.75" cy="377.25" r="1.8" fill="#d95926"/>
<circle cx="338.25" cy="377.25" r="1.8" fill="#d95926"/>
<circle cx="342.75" cy="381.75" r="1.8" fill="#d95926"/>
<circle cx="347.25" cy="381.75" r="1.8" fill="#d95926"/>
<circle cx="356.25" cy="368.25" r="1.8" fill="#3987e5"/>
<circle cx="360.75" cy="368.25" r="1.8" fill="#3987e5"/>
<circle cx="365.25" cy="372.75" r="1.8" fill="#3987e5"/>
<circle cx="369.75" cy="377.25" r="1.8" fill="#3987e5"/>
<circle cx="383.25" cy="377.25" r="1.8" fill="#d95926"/>
<circle cx="387.75" cy="377.25" r="1.8" fill="#d95926"/>
<circle cx="387.75" cy="381.75" r="1.8" fill="#d95926"/>
<circle cx="392.25" cy="372.75" r="1.8" fill="#d95926"/>
<circle cx="392.25" cy="377.25" r="1.8" fill="#d95926"/>
<circle cx="396.75" cy="372.75" r="1.8" fill="#d95926"/>
<circle cx="401.25" cy="368.25" r="1.8" fill="#d95926"/>
<circle cx="405.75" cy="368.25" r="1.8" fill="#d95926"/>
<circle cx="437.25" cy="381.75" r="1.8" fill="#32323d"/>
<circle cx="441.75" cy="381.75" r="1.8" fill="#32323d"/>
<circle cx="446.25" cy="377.25" r="1.8" fill="#32323d"/>
<circle cx="450.75" cy="372.75" r="1.8" fill="#32323d"/>
<circle cx="455.25" cy="372.75" r="1.8" fill="#32323d"/>
<circle cx="459.75" cy="368.25" r="1.8" fill="#32323d"/>
<circle cx="464.25" cy="368.25" r="1.8" fill="#32323d"/>
<circle cx="306.75" cy="386.25" r="1.8" fill="#32323d"/>
<circle cx="311.25" cy="386.25" r="1.8" fill="#32323d"/>
<circle cx="315.75" cy="390.75" r="1.8" fill="#32323d"/>
<circle cx="320.25" cy="390.75" r="1.8" fill="#32323d"/>
<circle cx="324.75" cy="395.25" r="1.8" fill="#32323d"/>
<circle cx="329.25" cy="395.25" r="1.8" fill="#32323d"/>
<circle cx="333.75" cy="399.75" r="1.8" fill="#32323d"/>
<circle cx="351.75" cy="386.25" r="1.8" fill="#d95926"/>
<circle cx="356.25" cy="386.25" r="1.8" fill="#d95926"/>
<circle cx="360.75" cy="390.75" r="1.8" fill="#d95926"/>
<circle cx="365.25" cy="390.75" r="1.8" fill="#d95926"/>
<circle cx="369.75" cy="395.25" r="1.8" fill="#d95926"/>
<circle cx="383.25" cy="386.25" r="1.8" fill="#d95926"/>
<circle cx="414.75" cy="395.25" r="1.8" fill="#32323d"/>
<circle cx="410.25" cy="399.75" r="1.8" fill="#32323d"/>
<circle cx="419.25" cy="395.25" r="1.8" fill="#32323d"/>
<circle cx="423.75" cy="390.75" r="1.8" fill="#32323d"/>
<circle cx="428.25" cy="390.75" r="1.8" fill="#32323d"/>
<circle cx="432.75" cy="386.25" r="1.8" fill="#32323d"/>
<circle cx="338.25" cy="404.25" r="1.8" fill="#32323d"/>
<circle cx="342.75" cy="404.25" r="1.8" fill="#32323d"/>
<circle cx="347.25" cy="408.75" r="1.8" fill="#32323d"/>
<circle cx="351.75" cy="408.75" r="1.8" fill="#32323d"/>
<circle cx="356.25" cy="413.25" r="1.8" fill="#32323d"/>
<circle cx="360.75" cy="413.25" r="1.8" fill="#32323d"/>
<circle cx="365.25" cy="417.75" r="1.8" fill="#32323d"/>
<circle cx="369.75" cy="417.75" r="1.8" fill="#32323d"/>
<circle cx="374.25" cy="404.25" r="1.8" fill="#32323d"/>
<circle cx="374.25" cy="408.75" r="1.8" fill="#32323d"/>
<circle cx="374.25" cy="413.25" r="1.8" fill="#32323d"/>
<circle cx="374.25" cy="417.75" r="1.8" fill="#32323d"/>
<circle cx="378.75" cy="417.75" r="1.8" fill="#32323d"/>
<circle cx="387.75" cy="413.25" r="1.8" fill="#32323d"/>
<circle cx="383.25" cy="417.75" r="1.8" fill="#32323d"/>
<circle cx="392.25" cy="413.25" r="1.8" fill="#32323d"/>
<circle cx="396.75" cy="408.75" r="1.8" fill="#32323d"/>
<circle cx="401.25" cy="404.25" r="1.8" fill="#32323d"/>
<circle cx="405.75" cy="404.25" r="1.8" fill="#32323d"/>
<g class="terminal">
<text x="48" y="92" textLength="126" class="b" fill="#f3f3f4">Laptop ratings</text>
<text x="52.5" y="128" text-anchor="middle" fill="#3987e5">■</text>
<text x="66" y="128" textLength="63" fill="#d0d0d3">Model A</text>
<text x="160.5" y="128" text-anchor="middle" fill="#d95926">■</text>
<text x="174" y="128" textLength="63" fill="#d0d0d3">Model B</text>
<text x="354" y="164" textLength="45" fill="#d0d0d3">Speed</text>
<text x="376.5" y="182" text-anchor="middle" fill="#3987e5">•</text>
<text x="381" y="182" textLength="18" fill="#96969c">10</text>
<text x="376.5" y="218" text-anchor="middle" fill="#d95926">•</text>
<text x="219" y="236" textLength="45" fill="#d0d0d3">Price</text>
<text x="381" y="236" textLength="9" fill="#96969c">5</text>
<text x="466.5" y="236" text-anchor="middle" fill="#d95926">•</text>
<text x="489" y="236" textLength="63" fill="#d0d0d3">Battery</text>
<text x="295.5" y="254" text-anchor="middle" fill="#d95926">•</text>
<text x="439.5" y="254" text-anchor="middle" fill="#3987e5">•</text>
<text x="331.5" y="272" text-anchor="middle" fill="#3987e5">•</text>
<text x="313.5" y="326" text-anchor="middle" fill="#3987e5">•</text>
<text x="439.5" y="344" text-anchor="middle" fill="#d95926">•</text>
<text x="457.5" y="344" text-anchor="middle" fill="#3987e5">•</text>
<text x="210" y="362" textLength="54" fill="#d0d0d3">Weight</text>
<text x="277.5" y="362" text-anchor="middle" fill="#d95926">•</text>
<text x="489" y="362" textLength="54" fill="#d0d0d3">Screen</text>
<text x="376.5" y="380" text-anchor="middle" fill="#3987e5">•</text>
<text x="376.5" y="398" text-anchor="middle" fill="#d95926">•</text>
<text x="336" y="434" textLength="72" fill="#d0d0d3">Keyboard</text>
</g>
<g shape-rendering="crispEdges">
</g>
</svg>
