<svg xmlns="http://www.w3.org/2000/svg" width="744" height="489" viewBox="0 0 744 489" role="img" aria-label="perl examples/widgets/histogram.pl">
<title>perl examples/widgets/histogram.pl</title>
<style>
.terminal text { font-family: 'JetBrains Mono', 'Cascadia Mono', 'SF Mono', Menlo, Consolas, 'DejaVu Sans Mono', 'Liberation Mono', monospace; font-size: 15px; white-space: pre; }
.terminal .b { font-weight: bold; }
.terminal .i { font-style: italic; }
.title { font-family: 'JetBrains Mono', 'Cascadia Mono', 'SF Mono', Menlo, Consolas, 'DejaVu Sans Mono', 'Liberation Mono', monospace; font-size: 13px; }
</style>
<defs>
<filter id="shadow" x="-10%" y="-10%" width="120%" height="130%"><feDropShadow dx="0" dy="3" stdDeviation="5" flood-color="#000000" flood-opacity="0.3"/></filter>
<clipPath id="window"><rect x="16" y="16" width="712" height="454" rx="10"/></clipPath>
</defs>
<rect x="16" y="16" width="712" height="454" rx="10" fill="#161622" filter="url(#shadow)"/>
<rect x="16" y="16" width="712" height="34" fill="#1f2430" clip-path="url(#window)"/>
<circle cx="36" cy="33" r="6" fill="#ff5f57"/>
<circle cx="56" cy="33" r="6" fill="#febc2e"/>
<circle cx="76" cy="33" r="6" fill="#28c840"/>
<text class="title" x="372" y="33" text-anchor="middle" dominant-baseline="central" fill="#9aa3b5">perl examples/widgets/histogram.pl</text>
<rect x="16.5" y="16.5" width="711" height="453" rx="10" fill="none" stroke="#ffffff" stroke-opacity="0.08" stroke-width="1"/>
<g shape-rendering="crispEdges">
<rect x="228" y="222" width="27" height="18" fill="#2d5b93"/>
<rect x="291" y="222" width="27" height="18" fill="#2d5b93"/>
<rect x="228" y="240" width="90" height="36" fill="#2d5b93"/>
<rect x="408" y="258" width="54" height="18" fill="#8d4021"/>
<rect x="228" y="276" width="117" height="18" fill="#2d5b93"/>
<rect x="372" y="276" width="153" height="36" fill="#8d4021"/>
<rect x="201" y="294" width="171" height="18" fill="#2d5b93"/>
<rect x="201" y="312" width="144" height="18" fill="#2d5b93"/>
<rect x="345" y="312" width="27" height="36" fill="#945a52"/>
<rect x="372" y="312" width="180" height="18" fill="#8d4021"/>
<rect x="174" y="330" width="171" height="18" fill="#2d5b93"/>
<rect x="372" y="330" width="207" height="18" fill="#8d4021"/>
<rect x="174" y="348" width="117" height="18" fill="#2d5b93"/>
<rect x="291" y="348" width="117" height="36" fill="#945a52"/>
<rect x="408" y="348" width="171" height="18" fill="#8d4021"/>
<rect x="138" y="366" width="153" height="18" fill="#2d5b93"/>
<rect x="408" y="366" width="198" height="18" fill="#8d4021"/>
<rect x="84" y="176" width="612" height="1" fill="#353535"/>
<rect x="291" y="206" width="27" height="16" fill="#2d5b93"/>
<rect x="228" y="220" width="27" height="2" fill="#2d5b93"/>
<rect x="255" y="227" width="36" height="13" fill="#2d5b93"/>
<rect x="84" y="230" width="144" height="1" fill="#353535"/>
<rect x="318" y="230" width="378" height="1" fill="#353535"/>
<rect x="408" y="242" width="27" height="16" fill="#8d4021"/>
<rect x="435" y="251" width="27" height="7" fill="#8d4021"/>
<rect x="318" y="265" width="27" height="11" fill="#2d5b93"/>
<rect x="372" y="269" width="36" height="7" fill="#8d4021"/>
<rect x="489" y="272" width="36" height="4" fill="#8d4021"/>
<rect x="462" y="274" width="27" height="2" fill="#8d4021"/>
<rect x="84" y="284" width="117" height="1" fill="#353535"/>
<rect x="525" y="284" width="171" height="1" fill="#353535"/>
<rect x="201" y="285" width="27" height="9" fill="#2d5b93"/>
<rect x="345" y="287" width="27" height="7" fill="#2d5b93"/>
<rect x="525" y="305" width="27" height="7" fill="#8d4021"/>
<rect x="345" y="310" width="27" height="2" fill="#945a52"/>
<rect x="174" y="317" width="27" height="13" fill="#2d5b93"/>
<rect x="552" y="323" width="27" height="7" fill="#8d4021"/>
<rect x="318" y="335" width="27" height="13" fill="#945a52"/>
<rect x="84" y="338" width="90" height="1" fill="#353535"/>
<rect x="579" y="338" width="117" height="1" fill="#353535"/>
<rect x="372" y="341" width="36" height="7" fill="#945a52"/>
<rect x="291" y="348" width="27" height="9" fill="#2d5b93"/>
<rect x="138" y="362" width="36" height="4" fill="#2d5b93"/>
<rect x="579" y="364" width="27" height="2" fill="#8d4021"/>
<rect x="408" y="371" width="27" height="13" fill="#945a52"/>
<rect x="606" y="377" width="36" height="7" fill="#8d4021"/>
<rect x="255" y="380" width="36" height="4" fill="#945a52"/>
<rect x="435" y="380" width="27" height="4" fill="#945a52"/>
<rect x="111" y="382" width="27" height="2" fill="#2d5b93"/>
<rect x="111" y="384" width="117" height="9" fill="#2d5b93"/>
<rect x="228" y="384" width="234" height="9" fill="#945a52"/>
<rect x="462" y="384" width="207" height="9" fill="#8d4021"/>
<rect x="669" y="392" width="27" height="1" fill="#5f5f5e"/>
</g>
<g class="terminal">
<text x="48" y="92" textLength="126" class="b" fill="#f4f4f4">Response times</text>
<text x="52.5" y="128" text-anchor="middle" fill="#3987e5">■</text>
<text x="66" y="128" textLength="63" fill="#d1d1d1">eu-west</text>
<text x="160.5" y="128" text-anchor="middle" fill="#d95926">■</text>
<text x="174" y="128" textLength="63" fill="#d1d1d1">us-east</text>
<text x="48" y="164" textLength="72" fill="#989898">requests</text>
<text x="48" y="182" textLength="27" fill="#989898">200</text>
<text x="48" y="236" textLength="27" fill="#989898">150</text>
<text x="48" y="290" textLength="27" fill="#989898">100</text>
<text x="57" y="344" textLength="18" fill="#989898">50</text>
<text x="66" y="398" textLength="9" fill="#989898">0</text>
<text x="75" y="416" textLength="603" fill="#989898">50      75     100     125     150     175      200     225     250</text>
<text x="336" y="434" textLength="108" fill="#989898">milliseconds</text>
</g>
<g shape-rendering="crispEdges">
</g>
</svg>
