<svg xmlns="http://www.w3.org/2000/svg" width="744" height="489" viewBox="0 0 744 489" role="img" aria-label="perl examples/widgets/area-chart.pl">
<title>perl examples/widgets/area-chart.pl</title>
<style>
.terminal text { font-family: 'JetBrains Mono', 'Cascadia Mono', 'SF Mono', Menlo, Consolas, 'DejaVu Sans Mono', 'Liberation Mono', monospace; font-size: 15px; white-space: pre; }
.terminal .b { font-weight: bold; }
.terminal .i { font-style: italic; }
.title { font-family: 'JetBrains Mono', 'Cascadia Mono', 'SF Mono', Menlo, Consolas, 'DejaVu Sans Mono', 'Liberation Mono', monospace; font-size: 13px; }
</style>
<defs>
<filter id="shadow" x="-10%" y="-10%" width="120%" height="130%"><feDropShadow dx="0" dy="3" stdDeviation="5" flood-color="#000000" flood-opacity="0.3"/></filter>
<clipPath id="window"><rect x="16" y="16" width="712" height="454" rx="10"/></clipPath>
</defs>
<rect x="16" y="16" width="712" height="454" rx="10" fill="#161622" filter="url(#shadow)"/>
<rect x="16" y="16" width="712" height="34" fill="#1f2430" clip-path="url(#window)"/>
<circle cx="36" cy="33" r="6" fill="#ff5f57"/>
<circle cx="56" cy="33" r="6" fill="#febc2e"/>
<circle cx="76" cy="33" r="6" fill="#28c840"/>
<text class="title" x="372" y="33" text-anchor="middle" dominant-baseline="central" fill="#9aa3b5">perl examples/widgets/area-chart.pl</text>
<rect x="16.5" y="16.5" width="711" height="453" rx="10" fill="none" stroke="#ffffff" stroke-opacity="0.08" stroke-width="1"/>
<g shape-rendering="crispEdges">
<rect x="390" y="168" width="63" height="18" fill="#188360"/>
<rect x="363" y="186" width="126" height="18" fill="#188360"/>
<rect x="336" y="204" width="54" height="18" fill="#188360"/>
<rect x="390" y="204" width="54" height="18" fill="#b24c25"/>
<rect x="444" y="204" width="90" height="18" fill="#188360"/>
<rect x="660" y="204" width="18" height="18" fill="#188360"/>
<rect x="300" y="222" width="36" height="18" fill="#188360"/>
<rect x="336" y="222" width="9" height="18" fill="#b24c25"/>
<rect x="345" y="222" width="9" height="18" fill="#188360"/>
<rect x="354" y="222" width="135" height="18" fill="#b24c25"/>
<rect x="489" y="222" width="9" height="18" fill="#188360"/>
<rect x="498" y="222" width="9" height="18" fill="#b24c25"/>
<rect x="507" y="222" width="171" height="18" fill="#188360"/>
<rect x="255" y="240" width="72" height="18" fill="#188360"/>
<rect x="327" y="240" width="198" height="18" fill="#b24c25"/>
<rect x="525" y="240" width="36" height="18" fill="#188360"/>
<rect x="561" y="240" width="18" height="18" fill="#b24c25"/>
<rect x="579" y="240" width="90" height="18" fill="#188360"/>
<rect x="669" y="240" width="9" height="18" fill="#b24c25"/>
<rect x="183" y="258" width="72" height="18" fill="#188360"/>
<rect x="255" y="258" width="9" height="18" fill="#b24c25"/>
<rect x="264" y="258" width="18" height="18" fill="#188360"/>
<rect x="282" y="258" width="396" height="18" fill="#b24c25"/>
<rect x="138" y="276" width="45" height="18" fill="#188360"/>
<rect x="183" y="276" width="180" height="18" fill="#b24c25"/>
<rect x="363" y="276" width="9" height="18" fill="#3270be"/>
<rect x="372" y="276" width="18" height="18" fill="#b24c25"/>
<rect x="390" y="276" width="54" height="18" fill="#3270be"/>
<rect x="444" y="276" width="234" height="18" fill="#b24c25"/>
<rect x="84" y="294" width="9" height="18" fill="#b24c25"/>
<rect x="93" y="294" width="36" height="18" fill="#188360"/>
<rect x="129" y="294" width="189" height="18" fill="#b24c25"/>
<rect x="318" y="294" width="9" height="18" fill="#3270be"/>
<rect x="327" y="294" width="9" height="18" fill="#b24c25"/>
<rect x="336" y="294" width="153" height="18" fill="#3270be"/>
<rect x="489" y="294" width="18" height="18" fill="#b24c25"/>
<rect x="507" y="294" width="18" height="18" fill="#3270be"/>
<rect x="525" y="294" width="135" height="18" fill="#b24c25"/>
<rect x="660" y="294" width="9" height="18" fill="#3270be"/>
<rect x="669" y="294" width="9" height="18" fill="#b24c25"/>
<rect x="84" y="312" width="72" height="18" fill="#b24c25"/>
<rect x="156" y="312" width="18" height="18" fill="#3270be"/>
<rect x="174" y="312" width="63" height="18" fill="#b24c25"/>
<rect x="237" y="312" width="18" height="18" fill="#3270be"/>
<rect x="255" y="312" width="36" height="18" fill="#b24c25"/>
<rect x="291" y="312" width="387" height="18" fill="#3270be"/>
<rect x="84" y="330" width="9" height="18" fill="#b24c25"/>
<rect x="93" y="330" width="585" height="18" fill="#3270be"/>
<rect x="84" y="348" width="594" height="18" fill="#3270be"/>
<rect x="84" y="158" width="306" height="1" fill="#32323d"/>
<rect x="444" y="158" width="234" height="1" fill="#32323d"/>
<rect x="399" y="164" width="36" height="4" fill="#188360"/>
<rect x="390" y="166" width="9" height="2" fill="#188360"/>
<rect x="435" y="166" width="9" height="2" fill="#188360"/>
<rect x="381" y="170" width="9" height="16" fill="#188360"/>
<rect x="453" y="170" width="9" height="16" fill="#188360"/>
<rect x="462" y="173" width="9" height="13" fill="#188360"/>
<rect x="372" y="177" width="9" height="9" fill="#188360"/>
<rect x="471" y="177" width="9" height="9" fill="#188360"/>
<rect x="363" y="184" width="9" height="2" fill="#188360"/>
<rect x="480" y="184" width="9" height="2" fill="#188360"/>
<rect x="489" y="188" width="9" height="16" fill="#188360"/>
<rect x="354" y="191" width="9" height="13" fill="#188360"/>
<rect x="498" y="193" width="9" height="11" fill="#188360"/>
<rect x="345" y="195" width="9" height="9" fill="#188360"/>
<rect x="507" y="197" width="9" height="7" fill="#188360"/>
<rect x="669" y="197" width="9" height="7" fill="#188360"/>
<rect x="336" y="200" width="9" height="4" fill="#188360"/>
<rect x="399" y="200" width="27" height="4" fill="#b24c25"/>
<rect x="390" y="202" width="9" height="2" fill="#b24c25"/>
<rect x="426" y="202" width="9" height="2" fill="#b24c25"/>
<rect x="516" y="202" width="9" height="2" fill="#188360"/>
<rect x="660" y="202" width="9" height="2" fill="#188360"/>
<rect x="327" y="206" width="9" height="16" fill="#188360"/>
<rect x="381" y="206" width="9" height="16" fill="#b24c25"/>
<rect x="444" y="206" width="9" height="16" fill="#b24c25"/>
<rect x="534" y="206" width="9" height="16" fill="#188360"/>
<rect x="651" y="206" width="9" height="16" fill="#188360"/>
<rect x="453" y="209" width="9" height="13" fill="#b24c25"/>
<rect x="543" y="209" width="9" height="13" fill="#188360"/>
<rect x="318" y="211" width="9" height="11" fill="#188360"/>
<rect x="372" y="211" width="9" height="11" fill="#b24c25"/>
<rect x="462" y="211" width="9" height="11" fill="#b24c25"/>
<rect x="552" y="211" width="9" height="11" fill="#188360"/>
<rect x="642" y="211" width="9" height="11" fill="#188360"/>
<rect x="561" y="213" width="18" height="9" fill="#188360"/>
<rect x="363" y="215" width="9" height="7" fill="#b24c25"/>
<rect x="471" y="215" width="9" height="7" fill="#b24c25"/>
<rect x="579" y="215" width="18" height="7" fill="#188360"/>
<rect x="633" y="215" width="9" height="7" fill="#188360"/>
<rect x="309" y="218" width="9" height="4" fill="#188360"/>
<rect x="597" y="218" width="36" height="4" fill="#188360"/>
<rect x="336" y="222" width="9" height="9" fill="#188360"/>
<rect x="498" y="222" width="9" height="9" fill="#188360"/>
<rect x="291" y="227" width="9" height="13" fill="#188360"/>
<rect x="345" y="227" width="9" height="13" fill="#b24c25"/>
<rect x="489" y="227" width="9" height="13" fill="#b24c25"/>
<rect x="84" y="230" width="180" height="1" fill="#32323d"/>
<rect x="282" y="231" width="9" height="9" fill="#188360"/>
<rect x="273" y="233" width="9" height="7" fill="#188360"/>
<rect x="327" y="236" width="9" height="4" fill="#b24c25"/>
<rect x="507" y="236" width="9" height="4" fill="#b24c25"/>
<rect x="264" y="238" width="9" height="2" fill="#188360"/>
<rect x="561" y="240" width="18" height="9" fill="#188360"/>
<rect x="246" y="242" width="9" height="16" fill="#188360"/>
<rect x="318" y="242" width="9" height="16" fill="#b24c25"/>
<rect x="525" y="242" width="18" height="16" fill="#b24c25"/>
<rect x="660" y="242" width="9" height="16" fill="#b24c25"/>
<rect x="237" y="245" width="9" height="13" fill="#188360"/>
<rect x="543" y="245" width="9" height="13" fill="#b24c25"/>
<rect x="228" y="247" width="9" height="11" fill="#188360"/>
<rect x="309" y="247" width="9" height="11" fill="#b24c25"/>
<rect x="552" y="247" width="9" height="11" fill="#b24c25"/>
<rect x="651" y="247" width="9" height="11" fill="#b24c25"/>
<rect x="210" y="249" width="18" height="9" fill="#188360"/>
<rect x="201" y="251" width="9" height="7" fill="#188360"/>
<rect x="300" y="251" width="9" height="7" fill="#b24c25"/>
<rect x="579" y="251" width="9" height="7" fill="#b24c25"/>
<rect x="642" y="251" width="9" height="7" fill="#b24c25"/>
<rect x="192" y="254" width="9" height="4" fill="#188360"/>
<rect x="588" y="254" width="9" height="4" fill="#b24c25"/>
<rect x="633" y="254" width="9" height="4" fill="#b24c25"/>
<rect x="183" y="256" width="9" height="2" fill="#188360"/>
<rect x="291" y="256" width="9" height="2" fill="#b24c25"/>
<rect x="597" y="256" width="18" height="2" fill="#b24c25"/>
<rect x="624" y="256" width="9" height="2" fill="#b24c25"/>
<rect x="255" y="258" width="9" height="9" fill="#188360"/>
<rect x="174" y="260" width="9" height="16" fill="#188360"/>
<rect x="273" y="263" width="9" height="13" fill="#b24c25"/>
<rect x="165" y="265" width="9" height="11" fill="#188360"/>
<rect x="264" y="265" width="9" height="11" fill="#b24c25"/>
<rect x="156" y="269" width="9" height="7" fill="#188360"/>
<rect x="246" y="269" width="9" height="7" fill="#b24c25"/>
<rect x="147" y="272" width="9" height="4" fill="#188360"/>
<rect x="210" y="272" width="36" height="4" fill="#b24c25"/>
<rect x="192" y="274" width="18" height="2" fill="#b24c25"/>
<rect x="399" y="274" width="27" height="2" fill="#3270be"/>
<rect x="363" y="276" width="9" height="9" fill="#b24c25"/>
<rect x="129" y="278" width="9" height="16" fill="#188360"/>
<rect x="174" y="278" width="9" height="16" fill="#b24c25"/>
<rect x="381" y="278" width="9" height="16" fill="#3270be"/>
<rect x="444" y="278" width="9" height="16" fill="#3270be"/>
<rect x="120" y="281" width="9" height="13" fill="#188360"/>
<rect x="372" y="281" width="9" height="13" fill="#3270be"/>
<rect x="453" y="281" width="9" height="13" fill="#3270be"/>
<rect x="111" y="283" width="9" height="11" fill="#188360"/>
<rect x="165" y="283" width="9" height="11" fill="#b24c25"/>
<rect x="462" y="283" width="9" height="11" fill="#3270be"/>
<rect x="102" y="285" width="9" height="9" fill="#188360"/>
<rect x="93" y="287" width="9" height="7" fill="#188360"/>
<rect x="156" y="287" width="9" height="7" fill="#b24c25"/>
<rect x="354" y="287" width="9" height="7" fill="#3270be"/>
<rect x="471" y="287" width="9" height="7" fill="#3270be"/>
<rect x="84" y="290" width="9" height="13" fill="#188360"/>
<rect x="147" y="290" width="9" height="4" fill="#b24c25"/>
<rect x="345" y="290" width="9" height="4" fill="#3270be"/>
<rect x="138" y="292" width="9" height="2" fill="#b24c25"/>
<rect x="480" y="292" width="9" height="2" fill="#3270be"/>
<rect x="318" y="294" width="9" height="9" fill="#b24c25"/>
<rect x="507" y="294" width="18" height="9" fill="#b24c25"/>
<rect x="660" y="294" width="9" height="9" fill="#b24c25"/>
<rect x="120" y="296" width="9" height="16" fill="#b24c25"/>
<rect x="489" y="296" width="9" height="16" fill="#3270be"/>
<rect x="111" y="299" width="9" height="13" fill="#b24c25"/>
<rect x="327" y="299" width="9" height="13" fill="#3270be"/>
<rect x="93" y="301" width="18" height="11" fill="#b24c25"/>
<rect x="498" y="301" width="9" height="11" fill="#3270be"/>
<rect x="669" y="301" width="9" height="11" fill="#3270be"/>
<rect x="309" y="305" width="9" height="7" fill="#3270be"/>
<rect x="525" y="305" width="45" height="7" fill="#3270be"/>
<rect x="651" y="305" width="9" height="7" fill="#3270be"/>
<rect x="570" y="308" width="18" height="4" fill="#3270be"/>
<rect x="642" y="308" width="9" height="4" fill="#3270be"/>
<rect x="300" y="310" width="9" height="2" fill="#3270be"/>
<rect x="588" y="310" width="18" height="2" fill="#3270be"/>
<rect x="633" y="310" width="9" height="2" fill="#3270be"/>
<rect x="156" y="312" width="18" height="9" fill="#b24c25"/>
<rect x="237" y="312" width="18" height="9" fill="#b24c25"/>
<rect x="282" y="314" width="9" height="16" fill="#3270be"/>
<rect x="192" y="317" width="9" height="13" fill="#3270be"/>
<rect x="273" y="317" width="9" height="13" fill="#3270be"/>
<rect x="174" y="319" width="18" height="11" fill="#3270be"/>
<rect x="201" y="319" width="36" height="11" fill="#3270be"/>
<rect x="255" y="319" width="18" height="11" fill="#3270be"/>
<rect x="147" y="323" width="9" height="7" fill="#3270be"/>
<rect x="129" y="326" width="18" height="4" fill="#3270be"/>
<rect x="111" y="328" width="18" height="2" fill="#3270be"/>
<rect x="84" y="332" width="9" height="16" fill="#3270be"/>
<rect x="84" y="366" width="594" height="9" fill="#3270be"/>
</g>
<g class="terminal">
<text x="48" y="92" textLength="144" class="b" fill="#f3f3f4">Visits by source</text>
<text x="52.5" y="128" text-anchor="middle" fill="#3987e5">■</text>
<text x="66" y="128" textLength="54" fill="#d0d0d3">Search</text>
<text x="151.5" y="128" text-anchor="middle" fill="#d95926">■</text>
<text x="165" y="128" textLength="54" fill="#d0d0d3">Social</text>
<text x="250.5" y="128" text-anchor="middle" fill="#199e70">■</text>
<text x="264" y="128" textLength="54" fill="#d0d0d3">Direct</text>
<text x="48" y="164" textLength="27" fill="#96969c">150</text>
<text x="48" y="236" textLength="27" fill="#96969c">100</text>
<text x="57" y="308" textLength="18" fill="#96969c">50</text>
<text x="66" y="380" textLength="9" fill="#96969c">0</text>
<text x="75" y="398" textLength="612" fill="#96969c">Jan  Feb   Mar   Apr   May   Jun   Jul   Aug   Sep   Oct   Nov   Dec</text>
</g>
<g shape-rendering="crispEdges">
</g>
</svg>
